<svg xmlns="http://www.w3.org/2000/svg" width="51.168" height="62.316" viewBox="0 0 51.168 62.316">
  <g id="noun-information-1608318" transform="translate(-147.898 -33.087)">
    <path id="Caminho_1536" data-name="Caminho 1536" d="M149.661,33.589a1.394,1.394,0,0,0-1.263,1.393V83.755a1.394,1.394,0,0,0,1.394,1.393h17.985a16.035,16.035,0,0,0,29.243.588,1.4,1.4,0,1,0-2.526-1.2,13.216,13.216,0,1,1,1.285-5.661,1.394,1.394,0,1,0,2.787,0,16.047,16.047,0,0,0-12.542-15.633V46.13a1.393,1.393,0,0,0-.414-1L174.462,33.981a1.392,1.392,0,0,0-.98-.392h-23.69a1.173,1.173,0,0,0-.131,0Zm1.524,2.787h20.9V46.13a1.394,1.394,0,0,0,1.393,1.394h9.754V62.875c-.23-.01-.464-.022-.7-.022a16.043,16.043,0,0,0-4.7.718,1.492,1.492,0,0,0-.174-.022h-21.6c-.044,0-.087,0-.131,0a1.4,1.4,0,0,0,.131,2.787h16.526a16.113,16.113,0,0,0-3.266,3.484H156.062c-.044,0-.087,0-.131,0a1.395,1.395,0,1,0,.131,2.787H167.8a15.845,15.845,0,0,0-1.045,3.484H156.062c-.044,0-.087,0-.131,0a1.4,1.4,0,0,0,.131,2.787h10.451a16.146,16.146,0,0,0,.392,3.484H151.185Zm23.69,1.96,6.4,6.4h-6.4ZM155.932,57.278a1.395,1.395,0,1,0,.131,2.787h22.3a1.394,1.394,0,1,0,0-2.787h-22.3c-.044,0-.087,0-.131,0ZM182.386,69.8a1.393,1.393,0,0,0-1.241,1.415v1.393a1.394,1.394,0,1,0,2.787,0V71.213a1.394,1.394,0,0,0-1.546-1.415Zm0,6.271a1.394,1.394,0,0,0-1.241,1.415v9.058a1.394,1.394,0,1,0,2.787,0V77.483a1.395,1.395,0,0,0-1.546-1.415Z" transform="translate(0)" fill="#93d1f2" stroke="#93d1f2" stroke-width="1"/>
  </g>
</svg>
