<svg xmlns="http://www.w3.org/2000/svg" width="49.269" height="42.277" viewBox="0 0 49.269 42.277">
  <g id="Grupo_1098" data-name="Grupo 1098" transform="translate(-1030.632 -531.576)">
    <path id="Caminho_1225" data-name="Caminho 1225" d="M1070.134,550.945a18.112,18.112,0,1,1-18.112-18.111A18.113,18.113,0,0,1,1070.134,550.945Z" fill="#93d1f2"/>
    <g id="Grupo_1098-2" data-name="Grupo 1098">
      <path id="Caminho_1226" data-name="Caminho 1226" d="M1039.106,555.873a4.237,4.237,0,1,1-4.238-4.237A4.237,4.237,0,0,1,1039.106,555.873Z" fill="#93d1f2"/>
      <circle id="Elipse_63" data-name="Elipse 63" cx="4.237" cy="4.237" r="4.237" transform="translate(1064.938 551.636)" fill="#93d1f2"/>
    </g>
    <rect id="Retângulo_961" data-name="Retângulo 961" width="17.994" height="12.514" transform="translate(1043.024 561.34)" fill="#93d1f2"/>
    <path id="Caminho_1227" data-name="Caminho 1227" d="M1064.456,539.135c-10.264,3-25.085,0-25.085,0a35.251,35.251,0,0,1-4.653,16.978,18.113,18.113,0,0,0,34.609.361A35.058,35.058,0,0,1,1064.456,539.135Z" fill="#fff"/>
    <g id="Grupo_1099" data-name="Grupo 1099">
      <path id="Caminho_1228" data-name="Caminho 1228" d="M1048.069,550.461a2.9,2.9,0,0,1-5.795,0" fill="none" stroke="#93d1f2" stroke-width="2"/>
      <path id="Caminho_1229" data-name="Caminho 1229" d="M1061.769,550.461a2.9,2.9,0,1,1-5.793,0" fill="none" stroke="#93d1f2" stroke-width="2"/>
    </g>
    <path id="Caminho_1230" data-name="Caminho 1230" d="M1034.11,553.631a18.112,18.112,0,0,0,35.824,0" fill="none" stroke="#93d1f2" stroke-width="2"/>
    <line id="Linha_155" data-name="Linha 155" x2="14.406" transform="translate(1044.819 561.771)" fill="none" stroke="#93d1f2" stroke-width="2"/>
    <g id="Grupo_1100" data-name="Grupo 1100">
      <path id="Caminho_1231" data-name="Caminho 1231" d="M1068.733,541.514l2.418-3.451v-.032h-2.19v-1.21h4.091v.837l-2.346,3.393v.033h2.387v1.209h-4.36Z" fill="#93d1f2"/>
    </g>
    <g id="Grupo_1101" data-name="Grupo 1101">
      <path id="Caminho_1232" data-name="Caminho 1232" d="M1074.472,537.42l3.013-4.3v-.041h-2.73v-1.506h5.1v1.041l-2.922,4.227v.04h2.972v1.507h-5.429Z" fill="#93d1f2"/>
    </g>
  </g>
</svg>
