<svg xmlns="http://www.w3.org/2000/svg" width="45.869" height="52.99" viewBox="0 0 45.869 52.99">
  <g id="Grupo_1053" data-name="Grupo 1053" transform="translate(-1024.313 -459.602)">
    <g id="Grupo_1067" data-name="Grupo 1067">
      <path id="Caminho_1198" data-name="Caminho 1198" d="M1044.569,512.592V506a9.828,9.828,0,0,1,9.816-9.817h10.335v-1.816h3.894c1.029,0,2.425-1.4.881-3.6s-5.216-8.393-5.216-8.393.808-11.3-5-16.884-14.622-7.567-23.514-4.335-13.3,13.08-10.728,22.338,5.658,11.684,5.658,17.342v11.756Z" fill="#fff"/>
      <path id="Caminho_1199" data-name="Caminho 1199" d="M1049.478,506v6.59h5.1v-6.76h6.539a3.833,3.833,0,0,0,3.6-3.969v-.77h-10.335A4.913,4.913,0,0,0,1049.478,506Z" fill="#fff"/>
    </g>
    <circle id="Elipse_62" data-name="Elipse 62" cx="1.2" cy="1.2" r="1.2" transform="translate(1055.949 497.286)" fill="#fff"/>
    <path id="Caminho_1200" data-name="Caminho 1200" d="M1048.2,506.468a1.2,1.2,0,1,1-1.2-1.2A1.2,1.2,0,0,1,1048.2,506.468Z" fill="#fff"/>
  </g>
</svg>