<svg xmlns="http://www.w3.org/2000/svg" width="54.124" height="121.189" viewBox="0 0 54.124 121.189">
  <path id="Caminho_1211" data-name="Caminho 1211" d="M288.589,525.65v-5.392h.99a4.382,4.382,0,0,0,4.191-4.535V509.2a4.376,4.376,0,0,0-4.191-4.535H249.724a4.376,4.376,0,0,0-4.2,4.535v6.52a4.382,4.382,0,0,0,4.2,4.535h.983v5.393a14.7,14.7,0,0,0-8.121,13.136v77.068a10,10,0,0,0,10.006,10h34.12a10,10,0,0,0,10-10V538.787A14.7,14.7,0,0,0,288.589,525.65Z" transform="translate(-242.586 -504.668)" fill="#003866"/>
</svg>
