<svg xmlns="http://www.w3.org/2000/svg" width="45.752" height="58.604" viewBox="0 0 45.752 58.604">
  <g id="noun-calendar-1295479" transform="translate(0.25 0.25)">
    <path id="Caminho_1419" data-name="Caminho 1419" d="M257.64,141.406H284a.968.968,0,1,0,0-1.936H257.64a.968.968,0,0,0,0,1.937Z" transform="translate(-244.806 -126.619)" fill="#006eb7" stroke="#006eb7" stroke-width="0.5"/>
    <path id="Caminho_1420" data-name="Caminho 1420" d="M199,41.826V37.221a5.024,5.024,0,0,0-5.018-5.018h-1.3V28.974a.968.968,0,0,0-1.936,0V32.2H162.01V28.974a.968.968,0,0,0-1.936,0V32.2h-1.3a5.024,5.024,0,0,0-5.018,5.018V81.092a5.024,5.024,0,0,0,5.018,5.018h35.216A5.024,5.024,0,0,0,199,81.092Zm-1.936,39.267a3.085,3.085,0,0,1-3.082,3.082H158.768a3.085,3.085,0,0,1-3.082-3.082v-38.3h7.562a.968.968,0,0,0,0-1.936h-7.563V37.222a3.085,3.085,0,0,1,3.082-3.082h1.3V37.5a.968.968,0,1,0,1.936,0v-3.36h28.733V37.5a.968.968,0,1,0,1.936,0V34.139h1.3a3.086,3.086,0,0,1,3.082,3.082v3.637h-.89a.968.968,0,1,0,0,1.936h.89v38.3Z" transform="translate(-153.75 -28.006)" fill="#006eb7" stroke="#006eb7" stroke-width="0.5"/>
    <path id="Caminho_1421" data-name="Caminho 1421" d="M225.51,175.2H190.43a.968.968,0,0,0-.968.968v35.08a.968.968,0,0,0,.968.968h26.31a.968.968,0,0,0,.968-.968v-7.8h7.8a.968.968,0,0,0,.968-.968v-26.31a.969.969,0,0,0-.968-.969Zm-.968,8.77H221.9a.968.968,0,0,0,0,1.936h2.637v6.833h-6.833v-6.833h1.129a.968.968,0,0,0,0-1.936h-1.129v-6.833h6.833ZM191.4,194.676h3.094a.968.968,0,0,0,0-1.936H191.4v-6.833h6.833v6.833h-.349a.968.968,0,0,0,0,1.936h.349v6.833H191.4Zm24.373-1.937h-6.833v-6.833h6.833Zm-8.77,0h-6.833v-6.833H207Zm-6.833,1.937H207v6.833h-6.833Zm8.77,0h6.833v6.833h-6.833Zm6.833-10.707h-6.833v-6.833h6.833Zm-8.77,0h-6.833v-6.833H207Zm-15.6-6.833h6.833v6.833H191.4Zm0,26.31h6.833v6.833H191.4Zm17.54,6.833v-2.338a.968.968,0,1,0-1.936,0v2.338h-6.833v-6.833H207v1.16a.968.968,0,0,0,1.936,0v-1.16h6.833v6.833Zm15.6-8.77h-6.833v-6.833h6.833Z" transform="translate(-185.345 -158.23)" fill="#006eb7" stroke="#006eb7" stroke-width="0.5"/>
    <path id="Caminho_1422" data-name="Caminho 1422" d="M369.981,429.279a.97.97,0,0,0-1.361.161l-1.488,1.888-.565-.717a.968.968,0,0,0-1.521,1.2l1.326,1.682.009.009a.992.992,0,0,0,.139.14.153.153,0,0,0,.013.012h0a.961.961,0,0,0,.253.137c.023.009.045.017.069.024a.972.972,0,0,0,.272.045h.006a.985.985,0,0,0,.273-.045l.068-.023a.963.963,0,0,0,.406-.29l.01-.01,2.249-2.854a.969.969,0,0,0-.163-1.36Z" transform="translate(-340.503 -382.833)" fill="#006eb7" stroke="#006eb7" stroke-width="0.5"/>
  </g>
</svg>
