<?xml version="1.0" encoding="utf-8"?>
<!-- Svg Vector Icons : http://www.onlinewebfonts.com/icon -->
<!DOCTYPE svg PUBLIC "-//W3C//DTD SVG 1.1//EN" "http://www.w3.org/Graphics/SVG/1.1/DTD/svg11.dtd">
<svg version="1.1" xmlns="http://www.w3.org/2000/svg" xmlns:xlink="http://www.w3.org/1999/xlink" x="0px" y="0px" viewBox="0 0 1000 1000" enable-background="new 0 0 1000 1000" xml:space="preserve">
<metadata> Svg Vector Icons : http://www.onlinewebfonts.com/icon </metadata>
<g><g transform="translate(0.000000,511.000000) scale(0.100000,-0.100000)"><path fill="#006eb7" d="M636.6,2937.7c-32.6-15.4-72.9-47.9-90.1-72.9c-44.1-69-191.7-981.6-299.1-1859.7C174.6,407,138.1-10.9,111.3-528.6c-23-452.5-17.3-485,78.6-556c76.7-55.6,268.4-76.7,699.8-76.7c437.1,1.9,799.5,26.8,874.2,61.4c67.1,30.7,92,76.7,159.1,293.3l59.4,187.9l220.5-186c469.7-395,1443.6-1200.2,1783-1470.5c437.1-352.8,550.2-414.1,830.1-452.5c212.8-30.7,441,24.9,559.8,134.2c36.4,32.6,44.1,32.6,124.6,5.8c283.7-97.8,611.6-30.7,811,168.7c88.2,88.2,92,90.1,182.1,78.6c118.9-13.4,293.3,23,425.6,90.1c107.4,53.7,270.3,209,308.7,295.3c17.3,36.4,42.2,49.8,111.2,59.4c120.8,17.3,297.2,115,377.7,209c120.8,141.9,151.5,228.1,153.4,446.7c1.9,107.4,7.7,201.3,13.4,212.8c7.7,9.6,46,40.3,88.2,70.9c72.9,49.9,80.5,51.8,124.6,23c141.9-93.9,579-138,1186.7-120.8c496.6,13.4,554.1,24.9,600.1,136.1c24.9,61.4,23,101.6-11.5,408.4C9819.9-72.3,9768.1,280.5,9706.8,616c-153.4,845.5-400.7,1568.3-580.9,1691c-78.6,53.7-245.4,72.8-577.1,70.9c-379.6-5.8-711.3-65.2-1148.4-212.8c-124.6-40.3-220.5-63.3-253.1-55.6c-99.7,19.2-550.2,189.8-995,375.8c-534.9,224.3-613.5,247.3-895.3,262.7c-316.3,17.3-657.6-49.8-914.5-180.2l-93.9-47.9l-375.8,23c-207.1,11.5-603.9,28.8-883.8,38.3c-462,13.4-525.3,19.2-690.2,65.2c-226.2,63.3-713.2,164.9-1163.7,241.6c-187.9,32.6-362.3,63.3-389.2,67.1C719,2958.8,671.1,2951.1,636.6,2937.7z M1225.2,2456.5c347-59.4,1002.7-201.3,1037.2-222.4c70.9-42.2-186-1135-557.9-2365.8C1622-405.9,1545.3-653.2,1535.8-680c-19.2-47.9-24.9-49.9-255-61.4c-128.4-7.7-354.7-13.4-502.3-13.4H510.1l13.4,283.7C550.3,102.2,646.2,986,774.6,1833.4c99.7,671,103.5,686.3,140,678.7C931.8,2508.3,1071.8,2483.3,1225.2,2456.5z M5494.7,2301.2c59.4-15.3,249.2-88.2,421.8-161.1c385.4-164.9,600.1-249.2,899.2-354.7c128.5-44.1,243.5-88.2,255-95.9c67.1-40.3,456.3-1016.1,732.4-1829c61.3-184.1,113.1-335.5,113.1-339.3c0-1.9-55.6-47.9-122.7-101.6l-124.6-95.9l-116.9,147.6c-293.3,370-749.6,832.1-1294.1,1309.4c-439,385.3-889.6,728.5-991.2,753.5c-34.5,7.7-103.5-7.7-210.9-46c-88.2-32.6-222.4-67.1-299.1-76.7c-76.7-9.6-155.3-26.8-176.4-38.3c-19.2-9.6-97.8-99.7-172.5-199.4c-214.7-287.6-368.1-398.8-546.4-402.6c-235.8-1.9-302.9,113.1-230.1,400.7c76.7,310.6,314.4,657.6,575.2,843.6C4612.8,2305,5080.6,2408.6,5494.7,2301.2z M3560.3,2147.8l159.1-11.5l-65.2-70.9c-178.3-197.5-347-515.7-416-786c-84.4-320.2-23-625,149.5-768.8c94-76.7,253.1-134.2,406.4-147.6c316.3-26.8,628.8,151.5,904.9,513.8c82.4,107.4,111.2,132.3,153.4,132.3c28.8,0,118.9,21.1,201.3,47.9l147.6,46l124.6-88.2c722.8-515.7,1944-1733.1,2112.7-2105.1c84.4-182.1-5.7-393-166.8-393c-70.9,0-124.6,46-956.7,814.8c-262.7,245.4-498.5,454.4-521.5,465.9c-138,74.8-312.5-65.2-281.8-224.3c15.3-74.8,74.8-132.3,1299.8-1250l76.7-70.9l-74.8-76.7c-82.4-80.5-226.2-128.4-318.3-105.4c-69,17.3-651.9,513.8-1062.1,908.7c-187.9,180.2-230.1,209-306.7,209c-149.5,0-243.5-155.3-180.2-295.2c24.9-53.7,780.3-749.6,1089-1000.8c23-19.2-53.7-69-143.8-95.9c-86.3-24.9-122.7-24.9-209-7.7c-136.1,28.8-222.4,97.8-734.3,602l-387.3,381.5l-82.4-11.5c-149.5-21.1-228.1-164.9-159.1-297.2c15.3-28.8,189.8-212.8,389.2-410.3c239.6-237.7,354.7-362.3,335.5-370c-53.7-19.2-210.9-9.6-302.9,21.1c-161,55.6-387.3,232-1827.1,1434.1c-404.5,339.3-747.7,625-761.1,636.5c-15.3,11.5-26.8,30.7-26.8,42.2c0,11.5,55.6,214.7,122.7,450.5c207.1,713.2,433.3,1673.7,433.3,1836.7c0,26.8,5.7,55.6,13.4,63.3C2709.1,2180.4,3259.3,2167,3560.3,2147.8z M8955.3,1814.2c180.2-368.1,406.4-1407.2,506.1-2331.3l11.5-117l-226.2-13.4C9032-658.9,8474-634,8410.8-611c-17.2,7.7-55.6,97.8-92,216.6c-161.1,515.7-473.6,1367-672.9,1836.7c-72.9,170.6-132.3,314.4-132.3,320.2c0,26.8,508.1,159.1,738.1,191.7c32.6,3.8,187.9,7.7,345.1,5.8l287.6-1.9L8955.3,1814.2z"/></g></g>
</svg>