<svg xmlns="http://www.w3.org/2000/svg" width="64.868" height="64.868" viewBox="0 0 64.868 64.868">
  <g id="Grupo_838" data-name="Grupo 838" transform="translate(-127.579 -1860.198)">
    <path id="Caminho_1002" data-name="Caminho 1002" d="M32.434,0A32.434,32.434,0,1,1,0,32.434,32.434,32.434,0,0,1,32.434,0Z" transform="translate(127.579 1860.198)" fill="#006eb7"/>
    <g id="noun-habit-medicines-2315737" transform="translate(1.987 1784.529)">
      <path id="Caminho_1554" data-name="Caminho 1554" d="M158.232,84.746a22.505,22.505,0,0,0-13.807,4.711l2.8,2.685a18.8,18.8,0,1,1-6.344,8.03l1.23,3,3.1-1.269-2.29-5.6-1.271-3.1L138.6,94.61l-5.49,2.534,1.4,3.043,2.747-1.268a22.6,22.6,0,1,0,20.965-14.172Z" transform="translate(0 2)" fill="#fff"/>
      <path id="Caminho_1555" data-name="Caminho 1555" d="M231.042,234.248l4.592-10.1a4.485,4.485,0,0,0-8.166-3.712l-4.591,10.1a4.485,4.485,0,1,0,8.166,3.714Zm1.659-14.487a2.784,2.784,0,0,1,1.382,3.684l-2.3,5.047-5.063-2.3,2.3-5.048A2.782,2.782,0,0,1,232.7,219.761Z" transform="translate(-79.011 -115.651)" fill="#fff"/>
      <path id="Caminho_1556" data-name="Caminho 1556" d="M331.084,295.5l10.488-.109a4.241,4.241,0,0,0-.088-8.482L331,287.018a4.241,4.241,0,0,0,.086,8.482Zm13.07-4.378a2.635,2.635,0,0,1-2.6,2.659l-5.244.053-.054-5.256,5.242-.056a2.628,2.628,0,0,1,2.656,2.6Z" transform="translate(-171.255 -176.75)" fill="#fff"/>
      <path id="Caminho_1557" data-name="Caminho 1557" d="M334.665,149.559a4.491,4.491,0,0,0-.8-6.292l-8.774-6.788a4.486,4.486,0,0,0-5.491,7.1l8.774,6.788a4.493,4.493,0,0,0,6.294-.8Zm-10.62-11.732,4.387,3.393-3.4,4.4-4.388-3.394a2.781,2.781,0,0,1,3.4-4.4Z" transform="translate(-163.35 -42.914)" fill="#fff"/>
    </g>
  </g>
</svg>
