<svg id="noun-weather-3330021" xmlns="http://www.w3.org/2000/svg" width="64.478" height="58.059" viewBox="0 0 64.478 58.059">
  <path id="Caminho_1462" data-name="Caminho 1462" d="M175.12,228.607a10.159,10.159,0,0,0-3.645-.787,2.009,2.009,0,0,0-.322,0h-1.291a10.343,10.343,0,0,0-.141-1.742,10.816,10.816,0,0,0-1.471-4.148,10.453,10.453,0,0,0-2.077-2.58,11.527,11.527,0,0,0-12.5-2.193,15.3,15.3,0,0,0-4.425-4.819A14.837,14.837,0,0,0,126,224.594a14.526,14.526,0,0,0,.374,3.271,10.322,10.322,0,0,0,.916,20.6h43.868a10.322,10.322,0,0,0,3.967-19.856Zm-3.967,16.631H127.285a7.1,7.1,0,0,1-.645-14.192l3.677-.322-.807-3.548a11.612,11.612,0,0,1,7.032-13.354,11.464,11.464,0,0,1,4.29-.839,11.213,11.213,0,0,1,4.774,1.045,11.719,11.719,0,0,1,5.277,4.761l1.432,2.451.935-.4,1.7-.761a8.38,8.38,0,0,1,11.689,7.741v3.225h4.516a7.1,7.1,0,0,1,0,14.192Z" transform="translate(-117.012 -190.404)" fill="#006eb7"/>
  <path id="Caminho_1463" data-name="Caminho 1463" d="M359.641,169.869l.374.271a1.335,1.335,0,0,0,1.935-.342,6.451,6.451,0,0,1,11.792,1.871,6.31,6.31,0,0,1,.136,2.168,1.522,1.522,0,0,0,.677,1.5l.135.084h0a1.561,1.561,0,0,0,2.387-1.155,9.892,9.892,0,0,0,.065-1.213,9.677,9.677,0,0,0-17.928-4.935,1.29,1.29,0,0,0,.42,1.754Z" transform="translate(-325.576 -150.568)" fill="#006eb7"/>
  <path id="Caminho_1464" data-name="Caminho 1464" d="M409.945,79.676a1.613,1.613,0,0,0,1.613-1.613V71.612h0a1.613,1.613,0,0,0-3.226,0v6.451h0a1.613,1.613,0,0,0,1.613,1.613Z" transform="translate(-368.061 -70)" fill="#006eb7"/>
  <path id="Caminho_1465" data-name="Caminho 1465" d="M513.33,223.278a1.613,1.613,0,0,0,1.613,1.613h6.451a1.613,1.613,0,0,0,0-3.225h-6.451A1.613,1.613,0,0,0,513.33,223.278Z" transform="translate(-458.545 -200.7)" fill="#006eb7"/>
  <path id="Caminho_1466" data-name="Caminho 1466" d="M306.11,121.73a1.615,1.615,0,1,0,2.284-2.284l-4.561-4.561h0a1.615,1.615,0,1,0-2.284,2.284Z" transform="translate(-275.632 -108.273)" fill="#006eb7"/>
  <path id="Caminho_1467" data-name="Caminho 1467" d="M520.084,316.944l-.213-.213.052.181h0A.568.568,0,0,1,520.084,316.944Z" transform="translate(-464.181 -282.624)" fill="#006eb7"/>
  <path id="Caminho_1468" data-name="Caminho 1468" d="M485.325,121.73l4.561-4.561h0a1.615,1.615,0,1,0-2.284-2.284l-4.561,4.561h0a1.615,1.615,0,0,0,2.284,2.284Z" transform="translate(-432.035 -108.273)" fill="#006eb7"/>
</svg>
