<svg xmlns="http://www.w3.org/2000/svg" width="95.623" height="95.632" viewBox="0 0 95.623 95.632">
  <path id="noun-brand-2454480" d="M208.5,47.183,197.814,57.866h-34.98a1.479,1.479,0,0,0-1.1.472l-44.59,44.56a1.56,1.56,0,0,0,0,2.237l35.64,35.64a1.583,1.583,0,0,0,1.1.472,1.53,1.53,0,0,0,1.1-.472l44.56-44.56a1.605,1.605,0,0,0,.472-1.1V60.1L210.7,49.419a1.571,1.571,0,1,0-2.206-2.237ZM196.9,94.452l-42.984,42.984L120.48,104l42.984-42.984h31.2l-9.674,9.674a7.911,7.911,0,1,0,3.53,6.586,8.076,8.076,0,0,0-1.292-4.348l9.674-9.674ZM185.367,77.277a4.734,4.734,0,1,1-1.387-3.34,4.593,4.593,0,0,1,1.386,3.34Z" transform="translate(-116.052 -46.117)" fill="#2482c1" stroke="#2482c1" stroke-width="1"/>
</svg>
