<svg id="noun-confusion-1546964" xmlns="http://www.w3.org/2000/svg" width="78.124" height="83.148" viewBox="0 0 78.124 83.148">
  <path id="Caminho_1639" data-name="Caminho 1639" d="M94.121,56.145v10.7A10.565,10.565,0,0,0,104.678,77.4H116.4V82.17a1.929,1.929,0,0,0,3.857,0V77.4h5.725a1.929,1.929,0,0,0,0-3.857h-21.3a6.706,6.706,0,0,1-6.7-6.7V54.216a1.929,1.929,0,0,0-1.929-1.929H91.967l8.666-15.01a1.946,1.946,0,0,0,.256-1.018l-.013-.419c-.011-.325-.021-.648-.021-.977a30.055,30.055,0,1,1,51.424,21.119L147.194,59.4a1.929,1.929,0,0,0,2.154,3.2l2.267-1.525V82.169a1.929,1.929,0,0,0,3.858,0V58.237A33.91,33.91,0,1,0,97,34.862c0,.323.009.642.019.962L86.956,53.251a1.928,1.928,0,0,0,1.67,2.893Z" transform="translate(-86.698 -0.95)" fill="#2482c1"/>
  <path id="Caminho_1640" data-name="Caminho 1640" d="M368.259,268.171a1.929,1.929,0,1,0,2.727,0,2,2,0,0,0-2.727,0Z" transform="translate(-325.842 -227.915)" fill="#2482c1"/>
  <path id="Caminho_1641" data-name="Caminho 1641" d="M341.66,133.994c1.754-1.242,4.159-2.945,4.159-6.74a7.487,7.487,0,0,0-4.164-7.024,8.921,8.921,0,0,0-9.207.974c-2.531,1.961-3.561,5.118-2.829,8.66a1.928,1.928,0,0,0,3.777-.778c-.435-2.107.054-3.78,1.416-4.833a5.122,5.122,0,0,1,5.145-.556,3.664,3.664,0,0,1,2,3.559c0,1.724-.821,2.381-2.531,3.593-1.827,1.292-4.334,3.068-4.334,7.164a1.929,1.929,0,0,0,3.858,0c0-2.011.93-2.761,2.707-4.019Z" transform="translate(-293.244 -101.738)" fill="#2482c1"/>
  <path id="Caminho_1642" data-name="Caminho 1642" d="M260.045,62.141a21.776,21.776,0,1,0,12.18,3.722,1.928,1.928,0,0,0-2.159,3.2A17.93,17.93,0,1,1,260.044,66a1.929,1.929,0,0,0,0-3.858Z" transform="translate(-215.687 -53.027)" fill="#2482c1"/>
</svg>
