<svg xmlns="http://www.w3.org/2000/svg" width="61.23" height="58.019" viewBox="0 0 61.23 58.019">
  <g id="noun-habit-medicines-2315737" transform="translate(-133.114 -86.746)">
    <path id="Caminho_1554" data-name="Caminho 1554" d="M165.337,84.746a28.871,28.871,0,0,0-17.713,6.044l3.592,3.444a24.115,24.115,0,1,1-8.139,10.3l1.577,3.852,3.978-1.628-2.937-7.18L144.065,95.6l-3.908,1.8-7.043,3.251,1.8,3.9,3.525-1.627a29,29,0,1,0,26.9-18.18Z" transform="translate(0 2)" fill="#93d1f2"/>
    <path id="Caminho_1555" data-name="Caminho 1555" d="M233.466,238.9l5.891-12.956a5.754,5.754,0,0,0-10.477-4.762l-5.889,12.954a5.754,5.754,0,1,0,10.475,4.764Zm2.128-18.585a3.572,3.572,0,0,1,1.772,4.726l-2.946,6.474-6.5-2.955,2.946-6.476A3.569,3.569,0,0,1,235.594,220.314Z" transform="translate(-76.084 -111.292)" fill="#93d1f2"/>
    <path id="Caminho_1556" data-name="Caminho 1556" d="M332.3,297.93l13.454-.14a5.441,5.441,0,0,0-.113-10.881l-13.452.14a5.441,5.441,0,0,0,.111,10.881Zm16.768-5.616a3.38,3.38,0,0,1-3.336,3.411l-6.727.069-.069-6.743,6.725-.071a3.371,3.371,0,0,1,3.408,3.335Z" transform="translate(-164.91 -170.127)" fill="#93d1f2"/>
    <path id="Caminho_1557" data-name="Caminho 1557" d="M339.419,153.524a5.761,5.761,0,0,0-1.031-8.072l-11.255-8.708a5.755,5.755,0,0,0-7.044,9.1l11.255,8.708a5.764,5.764,0,0,0,8.075-1.03ZM325.8,138.474l5.628,4.353-4.365,5.645-5.63-4.354a3.568,3.568,0,0,1,4.367-5.644Z" transform="translate(-157.298 -41.25)" fill="#93d1f2"/>
  </g>
</svg>
