<svg id="Grupo_1192" data-name="Grupo 1192" xmlns="http://www.w3.org/2000/svg" width="64.867" height="64.868" viewBox="0 0 64.867 64.868">
  <path id="Caminho_1002" data-name="Caminho 1002" d="M32.434,64.868A32.434,32.434,0,1,0,0,32.434,32.434,32.434,0,0,0,32.434,64.868Z" transform="translate(0)" fill="#006eb7"/>
  <g id="noun-suggests-3859004" transform="translate(-97.113 8.967)">
    <path id="Caminho_1617" data-name="Caminho 1617" d="M213.851,87.5h-.136a12.477,12.477,0,0,0-12.462,11.9,12.208,12.208,0,0,0,3.09,8.564,14.6,14.6,0,0,1,3.488,8.944,1.456,1.456,0,0,0,1.46,1.393h8.841a1.455,1.455,0,0,0,1.46-1.392,14.881,14.881,0,0,1,3.634-9.113,12.253,12.253,0,0,0,2.952-7.965A12.439,12.439,0,0,0,213.85,87.5Zm8.262,19.341a16.294,16.294,0,0,0-3.981,9.992l-8.836.01a16.087,16.087,0,0,0-3.857-9.855,10.746,10.746,0,0,1-2.721-7.539,11,11,0,0,1,11-10.483h.12A10.967,10.967,0,0,1,224.712,99.83a10.784,10.784,0,0,1-2.6,7.011Z" transform="translate(-84.166 -80.167)" fill="#fff"/>
    <path id="Caminho_1618" data-name="Caminho 1618" d="M247.194,156.262a9.532,9.532,0,0,0-2.143,3.309.733.733,0,0,0,.422.947.744.744,0,0,0,.947-.422,8.082,8.082,0,0,1,1.816-2.8.733.733,0,0,0-1.043-1.032Z" transform="translate(-124.256 -142.967)" fill="#fff"/>
    <path id="Caminho_1619" data-name="Caminho 1619" d="M298.989,131.711a.733.733,0,0,0-.952-.412c-.291.115-.579.245-.856.386a.734.734,0,0,0-.321.986.743.743,0,0,0,.986.321c.237-.12.483-.231.731-.329h0a.734.734,0,0,0,.412-.952Z" transform="translate(-171.694 -120.247)" fill="#fff"/>
    <path id="Caminho_1620" data-name="Caminho 1620" d="M289.534,472.5H282.2a2.2,2.2,0,1,0,0,4.4h.074a3.667,3.667,0,0,0,7.185,0h.074a2.2,2.2,0,1,0,0-4.4Zm-3.667,5.867a2.2,2.2,0,0,1-2.074-1.467h4.149a2.2,2.2,0,0,1-2.074,1.467Zm3.667-2.933H282.2a.733.733,0,1,1,0-1.467h7.333a.733.733,0,1,1,0,1.467Z" transform="translate(-156.321 -432.9)" fill="#fff"/>
    <path id="Caminho_1621" data-name="Caminho 1621" d="M341.983,5.133a.733.733,0,0,0,.733-.733V.733a.733.733,0,1,0-1.467,0V4.4A.733.733,0,0,0,341.983,5.133Z" transform="translate(-212.437)" fill="#fff"/>
    <path id="Caminho_1622" data-name="Caminho 1622" d="M533.78,271.25h-3.667a.733.733,0,1,0,0,1.467h3.667a.733.733,0,1,0,0-1.467Z" transform="translate(-384.8 -248.517)" fill="#fff"/>
    <path id="Caminho_1623" data-name="Caminho 1623" d="M113.78,271.25h-3.667a.733.733,0,1,0,0,1.467h3.667a.733.733,0,1,0,0-1.467Z" transform="translate(0 -248.517)" fill="#fff"/>
    <path id="Caminho_1624" data-name="Caminho 1624" d="M505.963,79.661a.732.732,0,0,0-1.037,0l-2.593,2.593h0a.734.734,0,0,0,0,1.037.755.755,0,0,0,1.037,0l2.593-2.593h0a.732.732,0,0,0,0-1.037Z" transform="translate(-359.823 -72.787)" fill="#fff"/>
    <path id="Caminho_1625" data-name="Caminho 1625" d="M150.708,79.674a.733.733,0,0,0-1.037,1.037l2.593,2.593h0a.743.743,0,0,0,1.037,0,.733.733,0,0,0,0-1.037Z" transform="translate(-36.719 -72.801)" fill="#fff"/>
    <path id="Caminho_1626" data-name="Caminho 1626" d="M318.009,175a2.94,2.94,0,0,0-2.92,3.131l.87,8.975a2.064,2.064,0,0,0,4.1,0l.87-8.975a2.936,2.936,0,0,0-2.92-3.131Zm.591,11.965a.6.6,0,0,1-1.182,0s-.869-8.97-.87-8.975h0a1.462,1.462,0,1,1,2.921,0Z" transform="translate(-188.462 -160.332)" fill="#fff"/>
    <path id="Caminho_1627" data-name="Caminho 1627" d="M325.95,358.749a2.2,2.2,0,1,0,1.555.645,2.2,2.2,0,0,0-1.555-.645Zm0,2.933a.733.733,0,1,1,.733-.733A.733.733,0,0,1,325.95,361.683Z" transform="translate(-196.404 -328.683)" fill="#fff"/>
  </g>
</svg>
