<svg xmlns="http://www.w3.org/2000/svg" width="65.224" height="84.614" viewBox="0 0 65.224 84.614">
  <g id="noun-prescription-1070118" transform="translate(-134.164)">
    <path id="Caminho_1595" data-name="Caminho 1595" d="M199.388,1.763A1.666,1.666,0,0,0,197.625,0h-61.7a1.666,1.666,0,0,0-1.763,1.763v72.8a10.007,10.007,0,0,0,9.871,10.048c.705,0,52.532-.176,53.59-.176a1.767,1.767,0,0,0,1.763-1.763Zm-61.7,72.8V3.525h58.349V80.207L160.078,67.515a6.49,6.49,0,0,0-9.167,5.994,7.488,7.488,0,0,1-1.939,5.817,6.607,6.607,0,0,1-11.282-4.76ZM187.4,80.912H151.969c2.115-2.468,2.468-4.76,2.468-7.58a2.986,2.986,0,0,1,4.407-2.644Z" fill="#2482c1"/>
    <path id="Caminho_1596" data-name="Caminho 1596" d="M282.925,78.663H289.8v6.875a1.763,1.763,0,1,0,3.526,0V78.663H300.2a1.763,1.763,0,1,0,0-3.526h-6.875V68.263a1.763,1.763,0,0,0-3.526,0v6.875h-6.875a1.763,1.763,0,1,0,0,3.525Z" transform="translate(-124.787 -56.452)" fill="#2482c1"/>
    <path id="Caminho_1597" data-name="Caminho 1597" d="M186.1,235.69h46.538a1.763,1.763,0,0,0,0-3.526H186.1a1.763,1.763,0,1,0,0,3.525Z" transform="translate(-42.588 -197.085)" fill="#2482c1"/>
    <path id="Caminho_1598" data-name="Caminho 1598" d="M186.1,302.19h46.538a1.763,1.763,0,1,0,0-3.526H186.1a1.763,1.763,0,1,0,0,3.525Z" transform="translate(-42.588 -253.537)" fill="#2482c1"/>
    <path id="Caminho_1599" data-name="Caminho 1599" d="M234.4,366.925a1.666,1.666,0,0,0-1.763-1.763H186.1a1.763,1.763,0,0,0,0,3.526h46.538A1.667,1.667,0,0,0,234.4,366.925Z" transform="translate(-42.589 -309.987)" fill="#2482c1"/>
  </g>
</svg>
