<svg xmlns="http://www.w3.org/2000/svg" width="83.937" height="83.937" viewBox="0 0 83.937 83.937">
  <g id="noun-prescription-4438362" transform="translate(-125.502 -55.5)">
    <path id="Caminho_1726" data-name="Caminho 1726" d="M201.255,56H133.686A7.693,7.693,0,0,0,126,63.684v67.569a7.693,7.693,0,0,0,7.684,7.684h67.569a7.693,7.693,0,0,0,7.684-7.684V63.684A7.693,7.693,0,0,0,201.255,56Zm5.611,40.438h-5.294a1.037,1.037,0,1,0,0,2.074h5.294v32.742a5.618,5.618,0,0,1-5.611,5.611H133.686a5.618,5.618,0,0,1-5.611-5.611V98.512h5.294a1.037,1.037,0,0,0,0-2.074h-5.294V63.685a5.618,5.618,0,0,1,5.611-5.611h67.569a5.618,5.618,0,0,1,5.611,5.611Z" transform="translate(0)" fill="#2482c1" stroke="#2482c1" stroke-width="1"/>
    <path id="Caminho_1727" data-name="Caminho 1727" d="M196.055,274.43a1.037,1.037,0,1,0,0,2.074h5.905a1.037,1.037,0,0,0,0-2.074Z" transform="translate(-56.239 -177.992)" fill="#2482c1" stroke="#2482c1" stroke-width="1"/>
    <path id="Caminho_1728" data-name="Caminho 1728" d="M269.708,275.465a1.037,1.037,0,0,0-1.037-1.037h-5.905a1.037,1.037,0,0,0,0,2.074h5.905A1.037,1.037,0,0,0,269.708,275.465Z" transform="translate(-110.6 -177.991)" fill="#2482c1" stroke="#2482c1" stroke-width="1"/>
    <path id="Caminho_1729" data-name="Caminho 1729" d="M329.485,274.43a1.037,1.037,0,0,0,0,2.074h5.905a1.037,1.037,0,0,0,0-2.074Z" transform="translate(-164.968 -177.992)" fill="#2482c1" stroke="#2482c1" stroke-width="1"/>
    <path id="Caminho_1730" data-name="Caminho 1730" d="M403.148,275.465a1.037,1.037,0,0,0-1.037-1.037h-5.905a1.037,1.037,0,1,0,0,2.074h5.905A1.037,1.037,0,0,0,403.148,275.465Z" transform="translate(-219.336 -177.991)" fill="#2482c1" stroke="#2482c1" stroke-width="1"/>
    <path id="Caminho_1731" data-name="Caminho 1731" d="M462.925,274.43a1.037,1.037,0,0,0,0,2.074h5.905a1.037,1.037,0,0,0,0-2.074Z" transform="translate(-273.704 -177.992)" fill="#2482c1" stroke="#2482c1" stroke-width="1"/>
    <path id="Caminho_1732" data-name="Caminho 1732" d="M333.149,157.64a1.034,1.034,0,0,0,.733-.3l4.552-4.552a1.037,1.037,0,1,0-1.466-1.466l-4.552,4.552a1.037,1.037,0,0,0,.733,1.77Z" transform="translate(-167.953 -77.425)" fill="#2482c1" stroke="#2482c1" stroke-width="1"/>
    <path id="Caminho_1733" data-name="Caminho 1733" d="M310.234,138.183a9.034,9.034,0,1,0-6.391-2.643,9.009,9.009,0,0,0,6.391,2.643Zm-4.925-13.961a6.966,6.966,0,1,1,0,9.851,6.945,6.945,0,0,1,0-9.851Z" transform="translate(-142.763 -52.246)" fill="#2482c1" stroke="#2482c1" stroke-width="1"/>
    <path id="Caminho_1734" data-name="Caminho 1734" d="M204.029,157.64a1.034,1.034,0,0,0,.733-.3l4.552-4.552a1.037,1.037,0,0,0-1.466-1.466L203.3,155.87a1.037,1.037,0,0,0,.733,1.77Z" transform="translate(-62.737 -77.425)" fill="#2482c1" stroke="#2482c1" stroke-width="1"/>
    <path id="Caminho_1735" data-name="Caminho 1735" d="M181.114,138.181a9.039,9.039,0,1,0-6.391-2.648,8.98,8.98,0,0,0,6.391,2.648Zm-4.925-13.964a6.966,6.966,0,1,1,0,9.851A6.944,6.944,0,0,1,176.189,124.217Z" transform="translate(-37.547 -52.24)" fill="#2482c1" stroke="#2482c1" stroke-width="1"/>
    <path id="Caminho_1736" data-name="Caminho 1736" d="M462.259,157.64a1.034,1.034,0,0,0,.733-.3l4.552-4.552a1.037,1.037,0,1,0-1.466-1.466l-4.552,4.552a1.037,1.037,0,0,0,.733,1.77Z" transform="translate(-273.161 -77.425)" fill="#2482c1" stroke="#2482c1" stroke-width="1"/>
    <path id="Caminho_1737" data-name="Caminho 1737" d="M439.354,138.181a9.039,9.039,0,1,0-6.391-2.648,8.982,8.982,0,0,0,6.391,2.648Zm-4.925-13.964a6.966,6.966,0,1,1,0,9.851A6.943,6.943,0,0,1,434.429,124.217Z" transform="translate(-247.979 -52.24)" fill="#2482c1" stroke="#2482c1" stroke-width="1"/>
    <path id="Caminho_1738" data-name="Caminho 1738" d="M336.969,373.563l-4.552,4.553a1.037,1.037,0,0,0,1.467,1.466l4.552-4.553a1.037,1.037,0,1,0-1.467-1.466Z" transform="translate(-167.954 -258.525)" fill="#2482c1" stroke="#2482c1" stroke-width="1"/>
    <path id="Caminho_1739" data-name="Caminho 1739" d="M303.827,345a9.039,9.039,0,1,0,12.782,0,8.98,8.98,0,0,0-12.782,0Zm11.317,11.316a6.964,6.964,0,1,1,2.04-4.925,6.974,6.974,0,0,1-2.04,4.925Z" transform="translate(-142.747 -233.344)" fill="#2482c1" stroke="#2482c1" stroke-width="1"/>
    <path id="Caminho_1740" data-name="Caminho 1740" d="M207.839,373.563l-4.552,4.553a1.037,1.037,0,0,0,1.467,1.466l4.552-4.553a1.037,1.037,0,1,0-1.467-1.466Z" transform="translate(-62.73 -258.525)" fill="#2482c1" stroke="#2482c1" stroke-width="1"/>
    <path id="Caminho_1741" data-name="Caminho 1741" d="M181.092,342.33a9.039,9.039,0,1,0,6.391,2.648A8.982,8.982,0,0,0,181.092,342.33Zm4.925,13.964a6.965,6.965,0,1,1,2.04-4.925A6.917,6.917,0,0,1,186.017,356.294Z" transform="translate(-37.525 -233.322)" fill="#2482c1" stroke="#2482c1" stroke-width="1"/>
    <path id="Caminho_1742" data-name="Caminho 1742" d="M466.079,373.563l-4.552,4.553a1.037,1.037,0,0,0,1.467,1.466l4.552-4.553a1.037,1.037,0,1,0-1.467-1.466Z" transform="translate(-273.162 -258.525)" fill="#2482c1" stroke="#2482c1" stroke-width="1"/>
    <path id="Caminho_1743" data-name="Caminho 1743" d="M439.335,342.33a9.04,9.04,0,1,0,6.391,2.648A8.98,8.98,0,0,0,439.335,342.33Zm4.925,13.964a6.964,6.964,0,1,1,2.041-4.925A6.917,6.917,0,0,1,444.26,356.294Z" transform="translate(-247.96 -233.322)" fill="#2482c1" stroke="#2482c1" stroke-width="1"/>
  </g>
</svg>
