<svg xmlns="http://www.w3.org/2000/svg" width="75.16" height="76.819" viewBox="0 0 75.16 76.819">
  <g id="noun-prescription-2138830" transform="translate(-83.508 -7.388)">
    <path id="Caminho_1690" data-name="Caminho 1690" d="M286.1,186.767h34.953a1.15,1.15,0,0,0,0-2.3H286.1a1.086,1.086,0,0,0-1.15,1.15A1.152,1.152,0,0,0,286.1,186.767Z" transform="translate(-172.884 -151.926)" fill="#2482c1" stroke="#2482c1" stroke-width="1"/>
    <path id="Caminho_1691" data-name="Caminho 1691" d="M370.1,125.831H393.32a1.15,1.15,0,1,0,0-2.3H370.1a1.086,1.086,0,0,0-1.15,1.15A1.152,1.152,0,0,0,370.1,125.831Z" transform="translate(-245.156 -99.497)" fill="#2482c1" stroke="#2482c1" stroke-width="1"/>
    <path id="Caminho_1692" data-name="Caminho 1692" d="M370.1,64.89H393.32a1.15,1.15,0,0,0,0-2.3H370.1a1.15,1.15,0,1,0,0,2.3Z" transform="translate(-245.156 -47.065)" fill="#2482c1" stroke="#2482c1" stroke-width="1"/>
    <path id="Caminho_1693" data-name="Caminho 1693" d="M286.1,246.061h34.953a1.15,1.15,0,1,0,0-2.3H286.1a1.086,1.086,0,0,0-1.15,1.15A1.152,1.152,0,0,0,286.1,246.061Z" transform="translate(-172.884 -202.941)" fill="#2482c1" stroke="#2482c1" stroke-width="1"/>
    <path id="Caminho_1694" data-name="Caminho 1694" d="M286.1,305.357h34.953a1.15,1.15,0,0,0,0-2.3H286.1a1.086,1.086,0,0,0-1.15,1.15A1.152,1.152,0,0,0,286.1,305.357Z" transform="translate(-172.884 -253.958)" fill="#2482c1" stroke="#2482c1" stroke-width="1"/>
    <path id="Caminho_1695" data-name="Caminho 1695" d="M286.1,364.647h34.953a1.15,1.15,0,0,0,0-2.3H286.1a1.086,1.086,0,0,0-1.15,1.15A1.152,1.152,0,0,0,286.1,364.647Z" transform="translate(-172.884 -304.971)" fill="#2482c1" stroke="#2482c1" stroke-width="1"/>
    <path id="Caminho_1696" data-name="Caminho 1696" d="M286.1,423.951h34.953a1.15,1.15,0,1,0,0-2.3H286.1a1.15,1.15,0,1,0,0,2.3Z" transform="translate(-172.884 -355.995)" fill="#2482c1" stroke="#2482c1" stroke-width="1"/>
    <path id="Caminho_1697" data-name="Caminho 1697" d="M286.1,483.241h34.953a1.15,1.15,0,0,0,0-2.3H286.1a1.15,1.15,0,0,0,0,2.3Z" transform="translate(-172.884 -407.007)" fill="#2482c1" stroke="#2482c1" stroke-width="1"/>
    <path id="Caminho_1698" data-name="Caminho 1698" d="M96.54,83.707a12.213,12.213,0,0,0,7.474-2.529,6.262,6.262,0,0,0,5.059,2.529h42.771a6.305,6.305,0,0,0,6.324-6.324V14.375a6.305,6.305,0,0,0-6.324-6.324c-46.106-.115-32.309-.23-34.953-.115a1.046,1.046,0,0,0-.8.345L102.979,21.389a1.043,1.043,0,0,0-.345.8V33.922A12.492,12.492,0,0,0,84.008,44.729v26.79A12.493,12.493,0,0,0,96.54,83.707Zm19.2-71.862v9.2h-9.2Zm-10.808,11.5h11.958a1.086,1.086,0,0,0,1.15-1.15V10.236h33.688a4,4,0,0,1,4.024,4.024V77.384a4,4,0,0,1-4.024,4.024H109.072a4.206,4.206,0,0,1-3.45-1.84,12.125,12.125,0,0,0,3.219-8.393V44.615a12.052,12.052,0,0,0-3.909-8.968ZM96.54,34.5a10.132,10.132,0,0,1,10.118,10.118V56.8H86.422V44.614A10.06,10.06,0,0,1,96.541,34.5ZM86.422,59.1h20.122V71.289a10.118,10.118,0,0,1-20.236,0V59.1Z" transform="translate(0 0)" fill="#2482c1" stroke="#2482c1" stroke-width="1"/>
    <path id="Caminho_1699" data-name="Caminho 1699" d="M166.685,217.24a5.52,5.52,0,0,1,5.519,5.519,1.15,1.15,0,1,0,2.3,0,7.827,7.827,0,0,0-7.819-7.819,1.15,1.15,0,0,0,0,2.3Z" transform="translate(-70.145 -178.145)" fill="#2482c1" stroke="#2482c1" stroke-width="1"/>
  </g>
</svg>
