<svg xmlns="http://www.w3.org/2000/svg" width="66.623" height="66.537" viewBox="0 0 66.623 66.537">
  <path id="noun-brand-2454480" d="M180.257,47.041l-7.4,7.4H148.637a1.024,1.024,0,0,0-.764.327L117,85.622a1.081,1.081,0,0,0,0,1.549l24.68,24.68a1.1,1.1,0,0,0,.764.327,1.06,1.06,0,0,0,.764-.327l30.856-30.856a1.112,1.112,0,0,0,.327-.764V55.987l7.4-7.4a1.088,1.088,0,1,0-1.527-1.549Zm-8.03,32.732-29.765,29.765L119.308,86.384l29.765-29.765h21.6l-6.7,6.7a5.478,5.478,0,1,0,2.444,4.561,5.592,5.592,0,0,0-.895-3.011l6.7-6.7ZM164.239,67.88a3.278,3.278,0,1,1-.96-2.313,3.181,3.181,0,0,1,.96,2.313Z" transform="translate(-116.078 -46.14)" fill="#93d1f2" stroke="#93d1f2" stroke-width="1"/>
</svg>
