<svg id="Grupo_1148" data-name="Grupo 1148" xmlns="http://www.w3.org/2000/svg" width="64.867" height="64.868" viewBox="0 0 64.867 64.868">
  <path id="Caminho_1002" data-name="Caminho 1002" d="M32.434,64.868A32.434,32.434,0,1,0,0,32.434,32.434,32.434,0,0,0,32.434,64.868Z" transform="translate(0)" fill="#006eb7"/>
  <g id="noun-insights-315004" transform="translate(-165.683 -9.416)">
    <path id="Caminho_1600" data-name="Caminho 1600" d="M335.384,56.231,347.27,43.12,334.159,54.952a1.784,1.784,0,0,0-1.6.426,1.7,1.7,0,0,0,2.4,2.4,1.555,1.555,0,0,0,.426-1.546Z" transform="translate(-135.666 -23.815)" fill="#fff"/>
    <path id="Caminho_1601" data-name="Caminho 1601" d="M310.8,523.655a1.843,1.843,0,0,0,1.866,1.812h3.678a1.879,1.879,0,0,0,1.866-1.812V523.6H310.8Z" transform="translate(-116.411 -458.566)" fill="#fff"/>
    <path id="Caminho_1602" data-name="Caminho 1602" d="M210.8,22.929l-1.652,1.866a12.933,12.933,0,0,1-1.439,16.949,17.7,17.7,0,0,0-5.223,10.34H193.8a17.707,17.707,0,0,0-5.223-10.34,13,13,0,0,1,0-18.654,13.51,13.51,0,0,1,9.54-3.891,13.906,13.906,0,0,1,7.942,2.505l1.866-1.6a16.212,16.212,0,0,0-21.106,1.279,15.351,15.351,0,0,0,0,22.065,15.066,15.066,0,0,1,4.531,9.114,2.317,2.317,0,0,0,2.025,1.919h9.38a2.261,2.261,0,0,0,2.025-1.919,15.508,15.508,0,0,1,4.531-9.114,15.228,15.228,0,0,0,1.492-20.52Z" fill="#fff"/>
    <path id="Caminho_1603" data-name="Caminho 1603" d="M280.517,435.145H291.23a1.413,1.413,0,0,0,0-2.825H280.517A1.413,1.413,0,0,0,280.517,435.145Z" transform="translate(-87.78 -375.973)" fill="#fff"/>
    <path id="Caminho_1604" data-name="Caminho 1604" d="M280.517,480.5H291.23a1.413,1.413,0,0,0,0-2.825H280.517A1.413,1.413,0,0,0,280.517,480.5Z" transform="translate(-87.78 -417.016)" fill="#fff"/>
    <path id="Caminho_1605" data-name="Caminho 1605" d="M232.644,153.891a4.889,4.889,0,0,1-.053-.906,9.227,9.227,0,0,1,.16-1.706l-1.652-.639a10.792,10.792,0,0,0-.213,3.2h1.759Z" transform="translate(-44.065 -121.101)" fill="#fff"/>
    <path id="Caminho_1606" data-name="Caminho 1606" d="M241.948,92.958a9.1,9.1,0,0,1,1.972-2.772l.267-.267-.959-1.439a5.285,5.285,0,0,0-.586.533,10.876,10.876,0,0,0-2.4,3.518Z" transform="translate(-52.569 -64.859)" fill="#fff"/>
    <path id="Caminho_1607" data-name="Caminho 1607" d="M288.96,62.528l1.066,1.332a9.048,9.048,0,0,1,3.571-1.119l.107-1.706A10.78,10.78,0,0,0,288.96,62.528Z" transform="translate(-96.65 -40.025)" fill="#fff"/>
    <path id="Caminho_1608" data-name="Caminho 1608" d="M364.264,62.531a11.758,11.758,0,0,0-4.744-1.492l.107,1.706a10.349,10.349,0,0,1,3.571,1.119Z" transform="translate(-160.494 -40.029)" fill="#fff"/>
  </g>
</svg>
