<svg xmlns="http://www.w3.org/2000/svg" width="43.404" height="67.454" viewBox="0 0 43.404 67.454">
  <path id="Caminho_1609" data-name="Caminho 1609" d="M493.664,488.3v-3.927h.722a3.19,3.19,0,0,0,3.05-3.3V476.33a3.187,3.187,0,0,0-3.05-3.3H465.369a3.186,3.186,0,0,0-3.055,3.3v4.747a3.19,3.19,0,0,0,3.055,3.3h.716V488.3a10.7,10.7,0,0,0-5.912,9.563V529.2a7.281,7.281,0,0,0,7.285,7.28H492.3a7.279,7.279,0,0,0,7.28-7.28V497.867A10.7,10.7,0,0,0,493.664,488.3Z" transform="translate(-458.173 -471.028)" fill="#2482c1" stroke="#2482c1" stroke-width="4"/>
</svg>
