<svg xmlns="http://www.w3.org/2000/svg" width="105.42" height="92.266" viewBox="0 0 105.42 92.266">
  <g id="noun-skin-3389019" transform="translate(-78.75 -8.452)">
    <path id="Caminho_1748" data-name="Caminho 1748" d="M182.469,273.049h-7.907a5.1,5.1,0,0,0-4.574,7.346,37.4,37.4,0,0,1,3.979,14.759,15.3,15.3,0,0,1-30.606,0,37.4,37.4,0,0,1,3.979-14.759,5.1,5.1,0,0,0-4.558-7.346H123.536a5.1,5.1,0,0,0-4.558,7.346,37.4,37.4,0,0,1,3.979,14.759,15.3,15.3,0,0,1-30.606,0,38.8,38.8,0,0,1,6.8-19.418v-.17a1.554,1.554,0,0,0,.2-.646v-.17a.409.409,0,0,0,0-.136,1.215,1.215,0,0,0,0-.34,1.411,1.411,0,0,0-.1-.289,1.515,1.515,0,0,0-.187-.272,1.687,1.687,0,0,0-.238-.255v-.1h-.17l-.306-.136H80.45a1.7,1.7,0,0,0,0,3.4H94.6a41.426,41.426,0,0,0-5.645,18.533,18.7,18.7,0,1,0,37.407,0,40.234,40.234,0,0,0-4.336-16.255,1.7,1.7,0,0,1,1.514-2.449h19.247A1.7,1.7,0,0,1,144.3,278.9a40.23,40.23,0,0,0-4.336,16.255,18.7,18.7,0,1,0,37.407,0,40.234,40.234,0,0,0-4.336-16.255,1.65,1.65,0,0,1,1.445-2.5h7.991a1.7,1.7,0,1,0,0-3.4Z" transform="translate(0 -213.139)" fill="#2482c1"/>
    <path id="Caminho_1749" data-name="Caminho 1749" d="M166.25,83.171a11.9,11.9,0,0,0,23.8,0c0-4.421-1.462-8.145-5.611-14.248a6.8,6.8,0,0,1-1.19-3.842V52.821a1.7,1.7,0,0,0-3.4,0V65.08a10.2,10.2,0,0,0,1.785,5.764c3.741,5.526,5.016,8.637,5.016,12.327a8.5,8.5,0,1,1-17,0c0-4.4,0-5.883,4.455-11.545h0a10.2,10.2,0,0,0,2.176-6.665c-.323-8.995-.2-39.311,14.844-51.639a1.7,1.7,0,1,0-2.142-2.619c-16.272,13.313-16.442,44.989-16.1,54.41a6.8,6.8,0,0,1-1.445,4.438c-5.186,6.563-5.186,8.773-5.186,13.619Z" transform="translate(-70.497 -1.412)" fill="#2482c1"/>
    <path id="Caminho_1750" data-name="Caminho 1750" d="M455,68.412a8.857,8.857,0,0,0,8.773-8.892c0-3.18-1.037-5.832-3.979-10.2h0a4.246,4.246,0,0,1-.731-2.364v-8.5a1.7,1.7,0,1,0-3.4,0v8.5a7.582,7.582,0,0,0,1.326,4.268c2.516,3.741,3.4,5.815,3.4,8.247a5.373,5.373,0,0,1-10.746.051c0-2.992,0-3.894,2.975-7.668a7.617,7.617,0,0,0,1.7-4.965c-.221-6.155-.153-26.933,10.083-35.316a1.7,1.7,0,1,0-2.142-2.619c-11.137,9.113-11.647,29.653-11.341,38.069a4.181,4.181,0,0,1-.884,2.721c-3.656,4.489-3.792,6.121-3.792,9.777A8.859,8.859,0,0,0,455,68.411Z" transform="translate(-296.085 0)" fill="#2482c1"/>
  </g>
</svg>
