<svg id="noun-physician-3308765" xmlns="http://www.w3.org/2000/svg" width="99.667" height="142.38" viewBox="0 0 99.667 142.38">
  <path id="Caminho_1407" data-name="Caminho 1407" d="M319.746,107.373A2.373,2.373,0,1,1,317.373,105a2.373,2.373,0,0,1,2.373,2.373" transform="translate(-274.658 -81.271)" fill="#006eb7"/>
  <path id="Caminho_1408" data-name="Caminho 1408" d="M372.246,107.373A2.373,2.373,0,1,1,369.873,105a2.373,2.373,0,0,1,2.373,2.373" transform="translate(-312.92 -81.271)" fill="#006eb7"/>
  <path id="Caminho_1409" data-name="Caminho 1409" d="M332.5,140.742h2.373a7.125,7.125,0,0,0,7.119-7.119V131.25h-4.746v2.373A2.375,2.375,0,0,1,334.873,136H332.5Z" transform="translate(-287.412 -100.401)" fill="#006eb7"/>
  <path id="Caminho_1410" data-name="Caminho 1410" d="M166.941,149.7l9.492,9.492a2.374,2.374,0,0,0,1.678.695h85.428a2.373,2.373,0,0,0,2.373-2.373V117.169a2.391,2.391,0,0,0-.091-.653l-9.492-33.222a2.374,2.374,0,0,0-1.6-1.62l-22.85-6.855-5.067-8.447h0a18.975,18.975,0,0,0,8.252-15.648V26.995a9.5,9.5,0,0,0-9.492-9.492h-9.492a9.453,9.453,0,0,0-6.268,2.373h-5.6a7.125,7.125,0,0,0-7.119,7.119v23.73a18.975,18.975,0,0,0,8.252,15.648l-5.067,8.447-22.85,6.855h0a2.375,2.375,0,0,0-1.6,1.621l-9.492,33.222a2.39,2.39,0,0,0-.091.653v9.492a2.369,2.369,0,0,0,.6,1.576l8.564,9.634-8.469,8.469a2.373,2.373,0,0,0,0,3.356Zm31.136,5.441-7.119-7.119,6.5-6.5,8.842,5.305-1.663,8.317Zm10.882-49.619,4.708-25.892a2.372,2.372,0,0,0-.213-1.486l-1.933-3.867,1.6-4.8h0a18.97,18.97,0,0,0,5.915,0l1.6,4.8L218.7,78.139h0a2.371,2.371,0,0,0-.213,1.486l4.708,25.892v29.816l-14.238-12.814ZM223.2,155.136H211.815L223.2,142.128Zm-3.327-16.413-9.213,10.529.628-3.143h0a2.375,2.375,0,0,0-1.106-2.5l-11.273-6.763-5.253-10.508,5.9-5.9Zm41.3-21.222v37.634h-9.492v-26.1h-4.746v26.1H227.944V105.72l8.895-24.46,2.97.891v19.3h0a18.317,18.317,0,0,0-7.119,14.515v5.682a2.373,2.373,0,0,0,2.373,2.373h4.746v-4.746h-2.373v-3.309a13.584,13.584,0,0,1,4.746-10.33,13.583,13.583,0,0,1,4.746,10.33v3.309h-2.373v4.746H249.3a2.373,2.373,0,0,0,2.373-2.373v-5.682a18.317,18.317,0,0,0-7.119-14.515V83.575l7.567,2.27ZM229.634,79.1l2.651.795-5.949,16.357-3.036-16.7,2.019-4.038a2.371,2.371,0,0,0,.129-1.812l-.283-.848,3.116,5.192a2.373,2.373,0,0,0,1.353,1.051ZM216.078,22.25h9.492A4.753,4.753,0,0,1,230.316,27v4.746H216.078a4.746,4.746,0,1,1,0-9.492ZM201.84,27a2.375,2.375,0,0,1,2.373-2.373h2.674a9.481,9.481,0,0,0,.2,5.4l-5.245,2.623Zm0,23.73V37.954l7.864-3.931a9.451,9.451,0,0,0,6.374,2.465h14.238V50.726a14.238,14.238,0,0,1-28.476,0Zm.682,28.376a2.379,2.379,0,0,0,1.353-1.052l3.116-5.192-.283.848a2.371,2.371,0,0,0,.129,1.812l2.019,4.038-3.036,16.7L199.872,79.9ZM189.975,98.185a2.373,2.373,0,0,0,2.373-2.373V94.081a4.746,4.746,0,1,1-4.746,0v1.731a2.373,2.373,0,0,0,2.373,2.373ZM170.991,117.5l9.044-31.654,7.567-2.27v5.417a9.492,9.492,0,1,0,4.746,0v-6.84l2.97-.891,8.895,24.46v12.526l-3.159-2.842h0a2.373,2.373,0,0,0-3.265.086l-6.373,6.373-1.161-2.322,4.215-8.431-4.245-2.123-4.746,9.492h0a2.369,2.369,0,0,0,0,2.123l8.727,17.454-6.5,6.5-16.714-18.8Zm7.576,23.924,7.261,8.169c.031.035.065.067.1.1l0,0,5.442,5.441H179.093l-7.119-7.119Z" transform="translate(-166.245 -17.503)" fill="#006eb7"/>
</svg>
