<svg xmlns="http://www.w3.org/2000/svg" width="142.383" height="142.385" viewBox="0 0 142.383 142.385">
  <g id="noun-clerk-1750884" transform="translate(0)">
    <path id="Caminho_1253" data-name="Caminho 1253" d="M96.989,100.891h4.746v42.714a16.631,16.631,0,0,0,16.611,16.611h80.682a16.631,16.631,0,0,0,16.611-16.611V100.891h4.746a9.55,9.55,0,0,0,9.492-9.706,9.18,9.18,0,0,0-1.364-4.774,2.373,2.373,0,0,0,1.364-2.136V36.815a2.373,2.373,0,0,0-2.373-2.373H215.639V29.7a2.373,2.373,0,0,0-2.373-2.373h-9.492A2.373,2.373,0,0,0,201.4,29.7v4.746H189.536a2.373,2.373,0,0,0-2.373,2.373v14.67a7.091,7.091,0,0,0-2.373-.432h-2.373V32.069a14.253,14.253,0,0,0-14.238-14.238H151.568a16.631,16.631,0,0,0-16.611,16.611V51.053h-2.373a7.119,7.119,0,0,0,0,14.238h2.373v2.373a21.4,21.4,0,0,0,11.865,19.072v2.285h-4.746a25.914,25.914,0,0,0-21.357,11.153v-8.78a9.491,9.491,0,0,0-9.492-9.492h-3.935l-3.206-24.038-4.7.626,3.123,23.418H96.775A9.336,9.336,0,0,0,87.5,91.4a9.493,9.493,0,0,0,9.492,9.492Zm9.492,42.714V105.637h9.492v4.746h-4.746v4.746h4.746v40.105a11.886,11.886,0,0,1-9.492-11.628Zm47.1-41.545-6.756,5.628V93.772h.237A11.865,11.865,0,0,0,153.577,102.06Zm2.736-13.034h4.746a21.365,21.365,0,0,0,4.746-.551V91.4a7.119,7.119,0,0,1-14.238,0V88.475A21.426,21.426,0,0,0,156.314,89.026Zm26.1-21.357V65.3h2.373a7.034,7.034,0,0,0,2.373-.438V84.28a2.373,2.373,0,0,0,2.373,2.373h8.438a9.393,9.393,0,0,0-1.319,4.746v8.78A25.929,25.929,0,0,0,175.3,89.026h-4.746V86.737a21.392,21.392,0,0,0,11.865-19.069Zm-23.73,44.1-4.252-4.252,4.252-3.545,4.252,3.546Zm5.1-9.718a12.05,12.05,0,0,0,3.3-2.276,11.916,11.916,0,0,0,3.223-6.008h.237v13.918ZM175.3,130.831l8.512,4.258L175.3,149.273Zm9.492,11.846v12.791h-7.674Zm0-12.406-6.559-3.279,6.559-3.28Zm-9.492-7.119V93.77a21.635,21.635,0,0,1,2.949.225l6.151,24.6Zm-28.476-9.288,3.954-3.294,3.062,3.062-4.4,41.835h-2.61Zm-4.746,35.411-8.512-14.186,8.512-4.256Zm-9.492-19v-6.559l6.559,3.28Zm0,12.406,7.674,12.791h-7.674ZM154.2,155.469l4.011-38.063a1.278,1.278,0,0,0,.949,0l4.011,38.063Zm9.335-41.835,3.062-3.062,3.954,3.294v41.6h-2.61Zm33.119,41.835h-7.119V119.874h-.029a2.4,2.4,0,0,0-.042-.577l-5.978-23.883a21.466,21.466,0,0,1,13.168,19.715Zm4.746-.237V115.126h4.746V110.38H201.4v-4.746h9.492V143.6a11.886,11.886,0,0,1-9.492,11.624Zm18.984-59.089h-7.119a2.372,2.372,0,0,0-2.373,2.373v2.373H201.4V91.4a4.745,4.745,0,0,1,4.746-4.746H220.6a4.587,4.587,0,0,1,4.532,4.746,4.747,4.747,0,0,1-4.746,4.746ZM201.4,39.19H215.64v4.746H201.4Zm4.746-7.119h4.746v2.373h-4.746ZM191.91,39.19h4.746v7.119a2.373,2.373,0,0,0,2.373,2.373h18.984a2.373,2.373,0,0,0,2.373-2.373V39.19h4.746V81.9H191.91ZM184.791,55.8a2.318,2.318,0,0,1,1.692.726,2.29,2.29,0,0,1,.681,1.647,2.373,2.373,0,0,1-2.373,2.373h-2.373V55.8ZM151.569,22.579H168.18a9.491,9.491,0,0,1,9.492,9.492v8.045l-2.712-4.509h0a2.373,2.373,0,0,0-2.034-1.162H144.45a2.373,2.373,0,0,0-2.034,1.15l-2.712,4.52V34.444a11.878,11.878,0,0,1,11.865-11.865ZM132.585,60.547a2.323,2.323,0,0,1-1.692-.727,2.289,2.289,0,0,1-.681-1.646,2.372,2.372,0,0,1,2.373-2.373h2.373v4.746Zm7.119,7.119V49.339l6.089-10.149h25.789l6.089,10.149V67.666a16.658,16.658,0,0,1-10.788,15.566,16.364,16.364,0,0,1-5.823,1.045h-4.746a16.374,16.374,0,0,1-5.837-1.062A16.652,16.652,0,0,1,139.7,67.666Zm2.373,55.485-9.1-4.562,6.156-24.608h0a21.741,21.741,0,0,1,2.945-.213Zm-8.2-27.736L127.909,119.3a2.392,2.392,0,0,0-.042.576h-.029v35.595h-7.119V115.133A21.466,21.466,0,0,1,133.88,95.415ZM96.775,86.65h6.363l.992,7.43,4.7-.622-.907-6.808h3.3a4.745,4.745,0,0,1,4.746,4.746v9.492h-9.492V98.516a2.373,2.373,0,0,0-2.373-2.373H96.989a4.8,4.8,0,0,1-4.746-4.96,4.536,4.536,0,0,1,4.532-4.532Z" transform="translate(-87.496 -17.831)" fill="#006eb7"/>
    <path id="Caminho_1254" data-name="Caminho 1254" d="M289.492,133.084a9.493,9.493,0,1,0-6.712-2.781A9.492,9.492,0,0,0,289.492,133.084Zm0-14.238a4.745,4.745,0,1,1-3.356,1.39A4.747,4.747,0,0,1,289.492,118.846Z" transform="translate(-227.793 -87.992)" fill="#006eb7"/>
    <path id="Caminho_1255" data-name="Caminho 1255" d="M359.492,114.1a9.491,9.491,0,1,0,6.712,2.78A9.5,9.5,0,0,0,359.492,114.1Zm0,14.238a4.747,4.747,0,1,1,3.356-1.391A4.744,4.744,0,0,1,359.492,128.338Z" transform="translate(-278.809 -87.992)" fill="#006eb7"/>
    <path id="Caminho_1256" data-name="Caminho 1256" d="M490,149.1h23.73v4.746H490Z" transform="translate(-380.841 -113.5)" fill="#006eb7"/>
    <path id="Caminho_1257" data-name="Caminho 1257" d="M490,184.1h23.73v4.746H490Z" transform="translate(-380.841 -139.008)" fill="#006eb7"/>
    <path id="Caminho_1258" data-name="Caminho 1258" d="M490,219.1h23.73v4.746H490Z" transform="translate(-380.841 -164.516)" fill="#006eb7"/>
    <path id="Caminho_1259" data-name="Caminho 1259" d="M326.385,219.564a12.376,12.376,0,0,0,8.807-3.65l-3.356-3.356a7.675,7.675,0,0,1-10.872.005l-3.365,3.346h0a12.314,12.314,0,0,0,8.78,3.655Z" transform="translate(-255.194 -159.748)" fill="#006eb7"/>
  </g>
</svg>
