<svg xmlns="http://www.w3.org/2000/svg" width="155.893" height="74.821" viewBox="0 0 155.893 74.821">
  <g id="Grupo_1126" data-name="Grupo 1126" transform="translate(-516.5 -1826.958)">
    <g id="noun-physical-therapist-3307837" transform="translate(516.5 1826.958)">
      <path id="Caminho_1366" data-name="Caminho 1366" d="M192.5,136.238h1.247a3.744,3.744,0,0,0,3.741-3.741V131.25h-2.494V132.5a1.248,1.248,0,0,1-1.247,1.247H192.5Z" transform="translate(-177.536 -115.039)" fill="#006eb7"/>
      <path id="Caminho_1367" data-name="Caminho 1367" d="M177.494,106.247A1.247,1.247,0,1,1,176.247,105a1.247,1.247,0,0,1,1.247,1.247" transform="translate(-162.53 -92.53)" fill="#006eb7"/>
      <path id="Caminho_1368" data-name="Caminho 1368" d="M229.994,106.247A1.247,1.247,0,1,1,228.747,105a1.247,1.247,0,0,1,1.247,1.247" transform="translate(-207.548 -92.53)" fill="#006eb7"/>
      <path id="Caminho_1369" data-name="Caminho 1369" d="M527.494,307.5a1.248,1.248,0,0,1-1.247,1.247H525v2.494h1.247a3.744,3.744,0,0,0,3.741-3.741V306.25h-2.494Z" transform="translate(-462.649 -265.099)" fill="#006eb7"/>
      <path id="Caminho_1370" data-name="Caminho 1370" d="M154.838,41.193H149.85a7.491,7.491,0,0,0-7.482,7.482V59.853l-2.582-3.012L138.6,50.925c0-.022-.011-.042-.017-.063h0l-.654-2.561,2.4-.961h0a1.247,1.247,0,0,0,.784-1.158V41.193a1.246,1.246,0,0,0-.209-.691l-2.494-3.741a1.247,1.247,0,0,0-1.038-.556h-2.534l-.071-.277.314-.419a17.3,17.3,0,0,0,3.469-9.914,3.014,3.014,0,0,0-1.663-2.78l-.013-.006a3,3,0,0,0-2.366-.123,3.742,3.742,0,0,0-4.325-2.619l-.929.186a6.965,6.965,0,0,0-5.545,7.694c0,.017,0,.035.008.052l1.2,7.165c0,.008,0,.016,0,.023L126,40.883l-1.392.348h0a1.246,1.246,0,0,0-.907.907l-1.156,4.624-3.39,3.108-8.178-4.543-.655-1.963h0a9.975,9.975,0,0,0,4.613-8.405V26.229A8.739,8.739,0,0,0,106.2,17.5H103.71a8.739,8.739,0,0,0-8.729,8.729v8.729a9.975,9.975,0,0,0,4.613,8.405l-.655,1.963L90.706,49.9A6.24,6.24,0,0,0,87.5,55.352V63.64a1.247,1.247,0,0,0,.522,1.015l1.972,1.408V91.074a1.247,1.247,0,0,0,1.247,1.247h28.681a1.247,1.247,0,0,0,1.247-1.247V66.134h3.741a1.246,1.246,0,0,0,1.1-.656l2.359-4.381,1.555,7.775h0a1.253,1.253,0,0,0,.265.554l6.018,7.223,2.438,14.631h0a1.248,1.248,0,0,0,1.23,1.042h21.2a1.247,1.247,0,0,0,1.247-1.247V68.628a1.247,1.247,0,0,0-.853-1.183l-1.931-.644h0a9.941,9.941,0,0,0,2.783-6.9V48.676a7.491,7.491,0,0,0-7.482-7.482Zm-9.976,7.482a4.993,4.993,0,0,1,4.988-4.988h4.988a4.993,4.993,0,0,1,4.988,4.988v1.247h-3.587a5.33,5.33,0,0,1-5.179-4.043,1.247,1.247,0,0,0-2.419,0l-.037.149a5.132,5.132,0,0,1-3.741,3.742Zm-8.15-9.976,1.915,2.871v3.767l-1.315.526L135.482,38.7Zm-9.327-3.959-1.2-7.126h0a4.471,4.471,0,0,1,3.563-4.915l.929-.186a1.246,1.246,0,0,1,1.491,1.223v1.237h0a5.725,5.725,0,0,0-2.494,4.745v.953h2.494v-.953a3.246,3.246,0,0,1,1.8-2.921,1.25,1.25,0,0,0,.524-.494l.6-1.052a.515.515,0,0,1,.676-.2l.007,0a.514.514,0,0,1,.278.471,14.812,14.812,0,0,1-2.972,8.492l-.673.9a1.247,1.247,0,0,0-.21,1.057l3.726,14.591-5.046,2.884-.449-2.4,2.508-1.254h0a1.246,1.246,0,0,0,.689-1.115V42.44a1.246,1.246,0,0,0-.689-1.115l-2.494-1.247a1.243,1.243,0,0,0-.86-.095l-1.172.293Zm-2.879,13.607a1.245,1.245,0,0,0,.367-.617l1.066-4.262,3.815-.954,1.392.7V47.9l-4.3,2.149h0a1.244,1.244,0,0,0-.41.328L110.6,69.875h-4.1L100.553,66.9l3.667-6.6,3.92,1.96h0a1.246,1.246,0,0,0,1.4-.2ZM103.711,19.994H106.2a6.228,6.228,0,0,1,4.975,2.481,7.728,7.728,0,0,1-6.655,3.754H97.476a6.242,6.242,0,0,1,6.235-6.235ZM97.476,34.958V28.723h7.049a10.207,10.207,0,0,0,7.815-3.6,6.244,6.244,0,0,1,.1,1.106v8.729a7.482,7.482,0,0,1-14.964,0Zm7.482,9.976a9.949,9.949,0,0,0,3.094-.493l.468,1.4-1.949,1.949a1.251,1.251,0,0,0-.156.19l-1.456,2.184L103.5,47.984a1.249,1.249,0,0,0-.156-.19L101.4,45.845l.468-1.4a9.949,9.949,0,0,0,3.094.493ZM89.994,55.351a3.742,3.742,0,0,1,1.925-3.27l7.835-4.353,1.741,1.741,2.426,3.638h0a1.248,1.248,0,0,0,2.075,0l2.426-3.638,1.741-1.742,7.053,3.919-8.727,8-4.22-2.11-4.988-2.494-1.115,2.231,3.823,1.911-4.925,8.864L89.994,63Zm28.681,34.476H92.488V67.844l4.263,3.045a1.247,1.247,0,0,0,1.815-.409l.775-1.4,6.306,3.153h0a1.244,1.244,0,0,0,.558.132h4.988a1.248,1.248,0,0,0,.968-.46l4.691-5.775h1.823Zm5.49-26.187h-5.286l9.252-11.387.468,2.5-.567.324h0a1.247,1.247,0,0,0-.6,1.327l.171.858Zm35.662,26.187h-18.9l-2.32-13.922a1.249,1.249,0,0,0-.272-.593l-6.032-7.239L130.05,56.795l6.447-3.684.908,4.539h0a1.251,1.251,0,0,0,.276.567l7.482,8.729.07-.06h0a9.954,9.954,0,0,0,11.921,1.75l2.673.891Zm-7.482-22.446a7.491,7.491,0,0,1-7.482-7.482V52.312a7.621,7.621,0,0,0,5.014-3.156,7.823,7.823,0,0,0,6.363,3.261h3.587V59.9a7.491,7.491,0,0,1-7.482,7.482Z" transform="translate(-87.499 -17.5)" fill="#006eb7"/>
      <path id="Caminho_1371" data-name="Caminho 1371" d="M509.994,281.247A1.247,1.247,0,1,1,508.747,280a1.247,1.247,0,0,1,1.247,1.247" transform="translate(-447.643 -242.59)" fill="#006eb7"/>
      <path id="Caminho_1372" data-name="Caminho 1372" d="M562.494,281.247A1.247,1.247,0,1,1,561.247,280a1.247,1.247,0,0,1,1.247,1.247" transform="translate(-492.661 -242.59)" fill="#006eb7"/>
    </g>
    <g id="noun-pharmacist-3307833" transform="translate(597.572 1826.958)">
      <path id="Caminho_1328" data-name="Caminho 1328" d="M245,144.988h1.247a3.744,3.744,0,0,0,3.741-3.741V140h-2.494v1.247a1.248,1.248,0,0,1-1.247,1.247H245Z" transform="translate(-222.553 -122.541)" fill="#006eb7"/>
      <path id="Caminho_1329" data-name="Caminho 1329" d="M229.994,115a1.247,1.247,0,1,1-1.247-1.247A1.247,1.247,0,0,1,229.994,115" transform="translate(-207.547 -100.032)" fill="#006eb7"/>
      <path id="Caminho_1330" data-name="Caminho 1330" d="M282.494,115a1.247,1.247,0,1,1-1.247-1.247A1.247,1.247,0,0,1,282.494,115" transform="translate(-252.565 -100.032)" fill="#006eb7"/>
      <path id="Caminho_1331" data-name="Caminho 1331" d="M158.415,52.5a3.694,3.694,0,0,1-2.334-3.446V38.695a1.247,1.247,0,0,0-1.247-1.247h-12.47a1.247,1.247,0,0,0-1.247,1.247v10.36a3.694,3.694,0,0,1-2.334,3.446,6.178,6.178,0,0,0-3.9,5.762v.384h-.347l-.457-2.591h0a6.227,6.227,0,0,0-3.608-4.614l-8.5-3.778L119,43.7a9.954,9.954,0,0,0,3.413-7.5V24.354a6.867,6.867,0,0,0-6.859-6.859h-6.859a6.242,6.242,0,0,0-6.235,6.235V36.2a9.953,9.953,0,0,0,3.413,7.5L102.9,47.663l-8.5,3.778a6.224,6.224,0,0,0-3.607,4.614L87.515,74.64h0a1.222,1.222,0,0,0-.015.312l1.247,16.211a1.247,1.247,0,0,0,1.243,1.151h67.338a4.993,4.993,0,0,0,4.988-4.988V58.263a6.178,6.178,0,0,0-3.9-5.762Zm-14.8-12.559h9.976v2.494H146.1v2.494h7.482v2.494H143.61Zm-6.235,18.322a3.694,3.694,0,0,1,2.334-3.446,6.172,6.172,0,0,0,3.842-4.9h10.094a6.172,6.172,0,0,0,3.842,4.9,3.694,3.694,0,0,1,2.334,3.446v7.866H146.1V64.882a1.247,1.247,0,0,0-1.247-1.247h-1.724l-2.149-4.3a1.246,1.246,0,0,0-1.115-.689h-2.494Zm3.741,14.1V66.129h2.494v6.235ZM128.17,63.635l1.247-2.494H139.1l1.247,2.494Zm10.453,2.494v6.235h-2.494V68.623h-2.494v3.741H131.14V69.87h-2.494v2.494h-3.741V66.129ZM127.4,74.858h13.717v8.729H127.4Zm16.211,0h1.247a1.247,1.247,0,0,0,1.247-1.247V68.623h13.717v8.729H143.61Zm-11.99-18.369.38,2.158h-3.355a1.246,1.246,0,0,0-1.115.689l-2.149,4.3h-1.724a1.247,1.247,0,0,0-1.247,1.247v8.729a1.247,1.247,0,0,0,1.247,1.247h1.247V89.822H113.682V71.351l8.17-21.01,7.6,3.379h0a3.735,3.735,0,0,1,2.165,2.769Zm-14.068-1.971L114.2,51.165l4.159-4.159,1.393,1.858Zm-1-9.235L112.435,49.4l-4.117-4.117a9.938,9.938,0,0,0,8.235,0Zm-5.881,5.881-3.354,3.354-2.2-5.654,1.393-1.858Zm-2.343,5.87,4.106-4.106,4.106,4.106.053-.053-4.159,10.695-4.159-10.694Zm11.588-32.68v.626a6.211,6.211,0,0,0-2.544-1.133,5.57,5.57,0,0,0-.823-3.741,4.371,4.371,0,0,1,3.367,4.248ZM108.694,19.99h3.118a3.118,3.118,0,1,1,0,6.235H111.7a2.992,2.992,0,0,1-2.129-.882,5.469,5.469,0,0,0-3.892-1.612h-.73a3.744,3.744,0,0,1,3.741-3.741ZM104.953,36.2V26.225h.73a2.992,2.992,0,0,1,2.129.882,5.469,5.469,0,0,0,3.892,1.612h.107a5.609,5.609,0,0,0,4.655-2.482,3.746,3.746,0,0,1,3.45,3.729V36.2a7.482,7.482,0,0,1-14.964,0ZM97.471,68.623v21.2H91.143L90,74.92l3.252-18.43a3.735,3.735,0,0,1,2.165-2.768l7.6-3.379,8.17,21.01V89.823H99.965v-21.2Zm29.928,21.2V86.081h13.717v3.741Zm29.928,0H143.61V79.846h16.211v7.482a2.5,2.5,0,0,1-2.494,2.494Z" transform="translate(-87.496 -17.495)" fill="#006eb7"/>
    </g>
  </g>
</svg>
