<svg xmlns="http://www.w3.org/2000/svg" width="142.381" height="142.854" viewBox="0 0 142.381 142.854">
  <g id="noun-nutrition-consultant-3683735" transform="translate(0 0)">
    <path id="Caminho_1276" data-name="Caminho 1276" d="M315,157.5h4.746v4.746H315Z" transform="translate(-253.301 -119.532)" fill="#006eb7"/>
    <path id="Caminho_1277" data-name="Caminho 1277" d="M367.5,157.5h4.746v4.746H367.5Z" transform="translate(-291.563 -119.532)" fill="#006eb7"/>
    <path id="Caminho_1278" data-name="Caminho 1278" d="M333.99,177.257l4.739-7.108,3.949,2.633-4.739,7.108Z" transform="translate(-267.141 -128.751)" fill="#006eb7"/>
    <path id="Caminho_1279" data-name="Caminho 1279" d="M330.7,219.62l-2.136,4.242a13.132,13.132,0,0,0,11.628,0l-2.136-4.242A8.23,8.23,0,0,1,330.7,219.62Z" transform="translate(-263.187 -164.805)" fill="#006eb7"/>
    <path id="Caminho_1280" data-name="Caminho 1280" d="M113.835,190.9l4.242-2.136-2.373-4.746a2.384,2.384,0,0,0-2.136-1.305H94.614a2.38,2.38,0,0,1-2.373-2.373V147.122a2.38,2.38,0,0,1,2.373-2.373h23.73V140H94.614a7.14,7.14,0,0,0-7.119,7.119v33.222a7.14,7.14,0,0,0,7.119,7.119h17.531Z" transform="translate(-87.495 -106.78)" fill="#006eb7"/>
    <path id="Caminho_1281" data-name="Caminho 1281" d="M122.5,183.75h4.746V188.5H122.5Z" transform="translate(-113.007 -138.663)" fill="#006eb7"/>
    <path id="Caminho_1282" data-name="Caminho 1282" d="M157.5,183.75h11.865V188.5H157.5Z" transform="translate(-138.515 -138.663)" fill="#006eb7"/>
    <path id="Caminho_1283" data-name="Caminho 1283" d="M122.5,218.75h4.746V223.5H122.5Z" transform="translate(-113.007 -164.171)" fill="#006eb7"/>
    <path id="Caminho_1284" data-name="Caminho 1284" d="M157.5,218.75h11.865V223.5H157.5Z" transform="translate(-138.515 -164.171)" fill="#006eb7"/>
    <path id="Caminho_1285" data-name="Caminho 1285" d="M122.5,253.75h4.746V258.5H122.5Z" transform="translate(-113.007 -189.679)" fill="#006eb7"/>
    <path id="Caminho_1286" data-name="Caminho 1286" d="M157.5,253.75h9.492V258.5H157.5Z" transform="translate(-138.515 -189.679)" fill="#006eb7"/>
    <path id="Caminho_1287" data-name="Caminho 1287" d="M259.393,83.945H245.155a9.5,9.5,0,0,0-17.975-4.271,15.989,15.989,0,0,0-4.094-6.882.985.985,0,0,1,0-1.394,12.424,12.424,0,0,0,0-17.59.985.985,0,0,1,0-1.394A10.359,10.359,0,0,0,226.141,45a27.534,27.534,0,0,0-27.5-27.5h-16.2a27.534,27.534,0,0,0-27.5,27.5,10.482,10.482,0,0,0,3.055,7.416.985.985,0,0,1,0,1.394,12.424,12.424,0,0,0,0,17.59.985.985,0,0,1,0,1.394,16.334,16.334,0,0,0-3.055,18.865l4.627,9.255-5.31,2.136a26.045,26.045,0,0,0-15.958,19.34l-7.06,37.078,4.657.89,7.06-37.078a21.211,21.211,0,0,1,13.051-15.84l10.8-4.3v18.776a2.38,2.38,0,0,0,2.373,2.373,2.3,2.3,0,0,0,1.572-.593l9.878-8.78a14.665,14.665,0,0,1,7.5,12.874v1.246a2.373,2.373,0,1,0,4.746,0v-1.246a14.665,14.665,0,0,1,7.5-12.874l9.106,8.068V135.2a8.4,8.4,0,0,0-8.187-.653l1.009-5.072-4.657-.92-1.513,7.534a8.355,8.355,0,0,0-13.852,4,14.766,14.766,0,0,0,1.661,11.183l3.055,5.1a7.24,7.24,0,0,0,10.59,2.017,7.24,7.24,0,0,0,10.59-2.017l.445-.712.89,1.335a6.363,6.363,0,0,0,4.746,2.848,4.805,4.805,0,0,0,.653.03,6.463,6.463,0,0,0,6.466-6.466v-2.076l8.394-8.394,4.716-1.572a10.516,10.516,0,0,0,3.263-1.75,22.36,22.36,0,0,0-2.136,8.424h-7.089v4.746h7.119v7.119h4.746v-7.149a22.556,22.556,0,0,0,14.742-6.585,20.939,20.939,0,0,0,1.869-2.136v11.094H245.155v4.746h14.238a2.38,2.38,0,0,0,2.373-2.373V86.317a2.38,2.38,0,0,0-2.373-2.373Zm-28.476,0a4.746,4.746,0,1,1,9.492,0v2.373h-9.492ZM164.028,99.132l-4.805-9.611a11.6,11.6,0,0,1,2.165-13.378,5.747,5.747,0,0,0,0-8.1,7.716,7.716,0,0,1,0-10.886,5.747,5.747,0,0,0,0-8.1A5.747,5.747,0,0,1,159.7,45a22.793,22.793,0,0,1,22.751-22.751h16.2A22.793,22.793,0,0,1,221.4,45a5.725,5.725,0,0,1-1.691,4.064,5.747,5.747,0,0,0,0,8.1,7.716,7.716,0,0,1,0,10.886,5.747,5.747,0,0,0,0,8.1,11.534,11.534,0,0,1,3.382,7.8H211.933a2.38,2.38,0,0,0-2.373,2.373v9.789l-4.746-1.9V81.6a25.885,25.885,0,0,0,7.119-17.946V48.35a2.354,2.354,0,0,0-1.9-2.314l-4.894-.979a6.324,6.324,0,0,1-5.072-6.2,2.373,2.373,0,0,0-4.271-1.424l-4.509,6.021a6.336,6.336,0,0,1-5.043,2.521H171.592a2.38,2.38,0,0,0-2.373,2.373V63.685a25.939,25.939,0,0,0,7.119,17.946V94.237ZM197.16,81.779l-5.31,3.322a2.41,2.41,0,0,1-2.521,0l-5.31-3.322a21.219,21.219,0,0,1-10.026-18.124V50.723h12.28a11.028,11.028,0,0,0,8.839-4.42l1.6-2.136a11.094,11.094,0,0,0,7.534,5.547l2.966.593V63.685A21.3,21.3,0,0,1,197.16,81.779Zm2.907,3.767v8.928l-9.492,5.7-9.492-5.7V85.547c.148.089.267.178.415.267l5.31,3.322a7.179,7.179,0,0,0,7.534,0l5.31-3.322c.148-.089.267-.178.415-.267Zm-28.476,31.085V101.207l6.911-2.759,8.1,4.865Zm18.984,1.78a19.2,19.2,0,0,0-6.2-6.793l6.2-5.517,6.2,5.517A19.191,19.191,0,0,0,190.575,118.411Zm4-15.1,8.1-4.865,6.911,2.759v15.424Zm7.89,44.672a6.4,6.4,0,0,0,2.551,4.538l-.831,1.394a2.451,2.451,0,0,1-2.106,1.187,2.573,2.573,0,0,1-1.75-.712l-.949-.949a2.381,2.381,0,0,0-3.352,0l-.949.949a2.481,2.481,0,0,1-3.856-.475l-3.055-5.1a10.018,10.018,0,0,1-1.127-7.594,3.592,3.592,0,0,1,4.36-2.61,3.353,3.353,0,0,1,1.661.949l3,3a2.381,2.381,0,0,0,3.352,0l3-3a3.6,3.6,0,0,1,5.072,0,3.492,3.492,0,0,1,.831,1.335,6.489,6.489,0,0,0-5.844,7.089Zm14.95.682a2.352,2.352,0,0,0-.682,1.691v3.055a1.722,1.722,0,0,1-1.72,1.72,1.76,1.76,0,0,1-1.453-.771l-1.958-2.937a2.28,2.28,0,0,0-.653-.653l-2.937-1.958a1.724,1.724,0,0,1-.475-2.4,1.76,1.76,0,0,1,1.453-.771h3.055a2.4,2.4,0,0,0,1.691-.682l7.8-7.8,3.767,3.767Zm18.005-13.259a6.008,6.008,0,0,1-2.343,1.453l-3.856,1.275-5.043-5.043,1.275-3.856a6.008,6.008,0,0,1,1.453-2.343l6.911-6.911a6.02,6.02,0,0,1,8.513,8.513Zm16.344,7.356a17.674,17.674,0,0,1-11.331,5.191,17.673,17.673,0,0,1,5.191-11.331c.178-.178.326-.326.5-.475a11.928,11.928,0,0,0,6.11,6.11,3.821,3.821,0,0,1-.475.5Zm3.322-4.509a7.073,7.073,0,0,1-4.894-4.894,18.024,18.024,0,0,1,6.793-1.9A18.179,18.179,0,0,1,255.092,138.256Zm1.928-11.568a22.676,22.676,0,0,0-9.492,2.67,10.764,10.764,0,0,0-17.086-12.725l-6.911,6.911a10.728,10.728,0,0,0-2.61,4.212l-1.572,4.716-5.043,5.072V88.69h11.865a2.38,2.38,0,0,0,2.373,2.373h14.238a2.38,2.38,0,0,0,2.373-2.373H257.02Z" transform="translate(-119.385 -17.501)" fill="#006eb7"/>
    <path id="Caminho_1288" data-name="Caminho 1288" d="M239.493,433.1a22.4,22.4,0,0,0-2.047,24.8v4.094h4.746v-4.746a2.488,2.488,0,0,0-.326-1.216,17.641,17.641,0,0,1,1.335-19.963l.86-1.068-3.708-2.966Z" transform="translate(-194.73 -319.612)" fill="#006eb7"/>
    <path id="Caminho_1289" data-name="Caminho 1289" d="M457.54,307.232l7.111-7.111,3.356,3.356-7.111,7.111Z" transform="translate(-357.184 -223.475)" fill="#006eb7"/>
    <path id="Caminho_1290" data-name="Caminho 1290" d="M507.5,306.25h16.611V311H507.5Z" transform="translate(-393.595 -227.941)" fill="#006eb7"/>
    <path id="Caminho_1291" data-name="Caminho 1291" d="M457.54,350.982l7.111-7.111,3.356,3.356-7.111,7.111Z" transform="translate(-357.184 -255.359)" fill="#006eb7"/>
    <path id="Caminho_1292" data-name="Caminho 1292" d="M507.5,341.25h16.611V346H507.5Z" transform="translate(-393.595 -253.449)" fill="#006eb7"/>
  </g>
</svg>
