<svg xmlns="http://www.w3.org/2000/svg" width="43.001" height="47.988" viewBox="0 0 43.001 47.988">
  <g id="Grupo_1308" data-name="Grupo 1308" transform="translate(-419.002 -1117.38)">
    <path id="Caminho_1049" data-name="Caminho 1049" d="M424.421,1169.021a3.919,3.919,0,1,0,0,7.838h29.112v-7.838Z" transform="translate(0 -12.99)" fill="none" stroke="#93d1f2" stroke-linecap="round" stroke-linejoin="round" stroke-width="3"/>
    <path id="Caminho_1050" data-name="Caminho 1050" d="M420.5,1159.949V1122.8a3.919,3.919,0,0,1,3.919-3.919h29.112v37.151" transform="translate(0)" fill="none" stroke="#93d1f2" stroke-linecap="round" stroke-linejoin="round" stroke-width="3"/>
    <line id="Linha_82" data-name="Linha 82" x2="27.939" transform="translate(425.595 1159.028)" fill="none" stroke="#93d1f2" stroke-linejoin="round" stroke-width="1"/>
    <line id="Linha_83" data-name="Linha 83" x2="27.939" transform="translate(425.595 1161.082)" fill="none" stroke="#93d1f2" stroke-linejoin="round" stroke-width="1"/>
    <g id="Grupo_866" data-name="Grupo 866" transform="translate(433.531 1126.561)">
      <path id="Caminho_1051" data-name="Caminho 1051" d="M454.455,1137.431a8.184,8.184,0,1,1-8.184-8.183A8.183,8.183,0,0,1,454.455,1137.431Z" transform="translate(-438.087 -1129.247)" fill="#fff" stroke="#93d1f2" stroke-linecap="round" stroke-linejoin="round" stroke-width="3"/>
      <path id="Caminho_1052" data-name="Caminho 1052" d="M452.89,1138.272a5.777,5.777,0,1,1-5.778-5.777A5.777,5.777,0,0,1,452.89,1138.272Z" transform="translate(-438.929 -1130.089)" fill="none" stroke="#93d1f2" stroke-linejoin="round" stroke-width="1"/>
      <path id="Caminho_1053" data-name="Caminho 1053" d="M461.132,1149.4l-3.264,3.265,9.051,9.022,3.264-3.265Z" transform="translate(-443.212 -1134.467)" fill="#fff" stroke="#93d1f2" stroke-linecap="round" stroke-linejoin="round" stroke-width="3"/>
      <line id="Linha_84" data-name="Linha 84" x1="2.454" y1="2.454" transform="translate(13.834 14.106)" fill="none" stroke="#93d1f2" stroke-linecap="round" stroke-linejoin="round" stroke-width="3"/>
    </g>
  </g>
</svg>
