<svg xmlns="http://www.w3.org/2000/svg" width="60.545" height="60.536" viewBox="0 0 60.545 60.536">
  <path id="noun-dropper-2088284" d="M144.036,20.481a10.214,10.214,0,0,0-14.424,0L117.525,32.569l-2.438-2.437a2.014,2.014,0,0,0-2.841,2.84l2.438,2.438-19.8,19.8a10.214,10.214,0,0,0-1.29,12.853l-6.426,6.426a2.015,2.015,0,1,0,2.841,2.841l6.447-6.426a10.214,10.214,0,0,0,12.853-1.289l19.8-19.8,2.438,2.438h0a2.014,2.014,0,0,0,2.84-2.841l-2.438-2.438,12.087-12.087h0a10.214,10.214,0,0,0,0-14.4ZM121.393,51.848l-4.372-4.372h0a2.016,2.016,0,0,0-2.841,2.861l4.372,4.372-2.941,2.941-4.372-4.372a2.015,2.015,0,0,0-2.841,2.841l4.372,4.371-2.962,2.941-4.372-4.372h0a2.015,2.015,0,0,0-2.74,2.76l4.372,4.372-.5.5a6.168,6.168,0,0,1-8.723-8.723l19.8-19.8,8.723,8.723Zm19.783-19.783L129.089,44.153l-8.7-8.743,12.087-12.087a6.168,6.168,0,1,1,8.7,8.743Z" transform="translate(-86.462 -17.5)" fill="#93d1f2"/>
</svg>
