<svg xmlns="http://www.w3.org/2000/svg" width="58.827" height="66.705" viewBox="0 0 58.827 66.705">
  <g id="noun-product-launch-1246502" transform="translate(0.502 0.5)">
    <path id="Caminho_1537" data-name="Caminho 1537" d="M237.882,424.038a1.1,1.1,0,0,0-1.1,1.1v3.171L221.4,435.953v-10.53a1.1,1.1,0,0,0-2.2,0v10.524L203.9,428.272v-3.1a1.1,1.1,0,1,0-2.2,0v3.777c0,.022,0,.042.006.064a.952.952,0,0,0,.012.118.975.975,0,0,0,.024.1,1.053,1.053,0,0,0,.031.1c.013.033.027.066.043.1a.944.944,0,0,0,.05.093c.018.029.038.057.059.084a1.032,1.032,0,0,0,.07.084c.024.025.049.049.074.072s.054.047.083.068a1.061,1.061,0,0,0,.1.061c.019.011.036.025.056.036l17.507,8.776c.009,0,.019.006.028.01a1.127,1.127,0,0,0,.164.059c.02.006.04.014.061.019a1.044,1.044,0,0,0,.476,0c.02,0,.039-.013.059-.018a1.064,1.064,0,0,0,.166-.059l.026-.009,17.578-8.737c.02-.01.037-.024.056-.035s.068-.04.1-.063.055-.044.081-.067a1.045,1.045,0,0,0,.076-.073c.025-.027.047-.055.07-.084a1.016,1.016,0,0,0,.059-.084c.019-.03.035-.061.05-.093a1,1,0,0,0,.043-.1c.013-.033.023-.068.032-.1s.018-.067.024-.1a1.2,1.2,0,0,0,.012-.12c0-.022.006-.042.006-.064v-3.851a1.1,1.1,0,0,0-1.1-1.1Z" transform="translate(-191.394 -373.116)" fill="#93d1f2" stroke="#93d1f2" stroke-width="1"/>
    <path id="Caminho_1538" data-name="Caminho 1538" d="M354.14,268.238v8.89a1.1,1.1,0,1,0,2.2,0v-8.89a1.1,1.1,0,0,0-2.2,0Z" transform="translate(-324.711 -235.9)" fill="#93d1f2" stroke="#93d1f2" stroke-width="1"/>
    <path id="Caminho_1539" data-name="Caminho 1539" d="M328.36,268.238v8.89a1.1,1.1,0,0,0,2.2,0v-8.89a1.1,1.1,0,0,0-2.2,0Z" transform="translate(-302.165 -235.9)" fill="#93d1f2" stroke="#93d1f2" stroke-width="1"/>
    <path id="Caminho_1540" data-name="Caminho 1540" d="M380.39,323.848v.732a1.1,1.1,0,0,0,2.2,0v-.732a1.1,1.1,0,0,0-2.2,0Z" transform="translate(-347.668 -284.534)" fill="#93d1f2" stroke="#93d1f2" stroke-width="1"/>
    <path id="Caminho_1541" data-name="Caminho 1541" d="M301.64,323.848v.732a1.1,1.1,0,0,0,2.2,0v-.732a1.1,1.1,0,0,0-2.2,0Z" transform="translate(-278.797 -284.534)" fill="#93d1f2" stroke="#93d1f2" stroke-width="1"/>
    <path id="Caminho_1542" data-name="Caminho 1542" d="M176.619,235.278l-8.09-2.657,8.355-5.559.005,0c.009-.006.016-.014.024-.02a1.071,1.071,0,0,0,.194-.181c.015-.018.03-.036.045-.055a1.106,1.106,0,0,0,.146-.259s0-.007.006-.012c.009-.024.012-.049.019-.074a1.117,1.117,0,0,0,.031-.117c.006-.035.008-.069.01-.1s.006-.072.006-.109-.005-.07-.009-.1-.008-.072-.015-.108-.019-.067-.029-.1-.021-.068-.035-.1a1,1,0,0,0-.056-.106c-.013-.023-.022-.046-.036-.068,0,0-.008-.009-.011-.014a.941.941,0,0,0-.08-.1.906.906,0,0,0-.06-.069c-.025-.024-.054-.045-.082-.067a.956.956,0,0,0-.087-.067c-.026-.017-.055-.029-.082-.043a1.1,1.1,0,0,0-.111-.054l-.017-.008L162.77,219.94A1.1,1.1,0,1,0,162,222l11.873,4.428-7.918,5.268-7.847-3.9a1.1,1.1,0,0,0-.977,1.966l6.437,3.2-15.107,7.51-15.049-7.544,6.37-3.165a1.1,1.1,0,0,0-.977-1.966l-7.769,3.861-7.882-5.284L134.92,222a1.1,1.1,0,0,0-.765-2.058l-13.772,5.119a1.1,1.1,0,0,0-.229,1.941l8.327,5.583-8.175,2.7a1.1,1.1,0,0,0-.145,2.026l17.578,8.737a1.1,1.1,0,0,0,.831.06l9.892-3.249,9.848,3.27a1.1,1.1,0,0,0,.835-.059l17.622-8.759a1.1,1.1,0,0,0-.147-2.027Zm-38.308,8.6-14.783-7.348,7.341-2.422,14.72,7.379Zm20.259.022-7.235-2.4,14.789-7.351,7.267,2.387Z" transform="translate(-119.552 -194.561)" fill="#93d1f2" stroke="#93d1f2" stroke-width="1"/>
    <path id="Caminho_1543" data-name="Caminho 1543" d="M264.226,49.835a1.1,1.1,0,0,0,2.046-.552V45.405a6.874,6.874,0,0,1,.051-.812,24.691,24.691,0,0,0,1.245,2.183,1.1,1.1,0,0,0,.924.506h4.378a1.1,1.1,0,0,0,.924-.506,24.746,24.746,0,0,0,1.245-2.183,6.88,6.88,0,0,1,.051.812v3.878a1.1,1.1,0,0,0,2.046.552L281.692,42a2.664,2.664,0,0,0-.217-3.011l-3.787-4.779a24.656,24.656,0,0,0-4.265-14.636,3.317,3.317,0,0,0-5.485,0,24.656,24.656,0,0,0-4.265,14.636l-3.787,4.779A2.663,2.663,0,0,0,259.67,42Zm6.455-29.52a1.106,1.106,0,0,1,.927.491,22.462,22.462,0,0,1,.652,24.281H269.1a22.464,22.464,0,0,1,.652-24.281,1.108,1.108,0,0,1,.928-.491Zm9.074,20.034a.489.489,0,0,1,.039.545l-2.511,4.32a9,9,0,0,0-.918-3.764,24.675,24.675,0,0,0,1.023-4.087Zm-18.149,0,2.366-2.986A24.537,24.537,0,0,0,265,41.451a9,9,0,0,0-.918,3.764l-2.511-4.32a.489.489,0,0,1,.039-.544Z" transform="translate(-241.772 -18.12)" fill="#93d1f2" stroke="#93d1f2" stroke-width="1"/>
    <path id="Caminho_1544" data-name="Caminho 1544" d="M327.395,95.052a3.254,3.254,0,1,0-3.243-3.254A3.252,3.252,0,0,0,327.395,95.052Zm0-4.313a1.059,1.059,0,1,1-1.047,1.059A1.055,1.055,0,0,1,327.395,90.739Z" transform="translate(-298.485 -79.709)" fill="#93d1f2" stroke="#93d1f2" stroke-width="1"/>
  </g>
</svg>
