<svg xmlns="http://www.w3.org/2000/svg" width="26.754" height="43.083" viewBox="0 0 26.754 43.083">
  <path id="Caminho_1244" data-name="Caminho 1244" d="M482.912,483.4v-2.666h.49a2.166,2.166,0,0,0,2.071-2.241V475.27a2.164,2.164,0,0,0-2.071-2.242H463.7a2.163,2.163,0,0,0-2.074,2.242v3.223a2.166,2.166,0,0,0,2.074,2.241h.486V483.4a7.268,7.268,0,0,0-4.014,6.493v21.275a4.944,4.944,0,0,0,4.946,4.943h16.865a4.942,4.942,0,0,0,4.943-4.943V489.893A7.266,7.266,0,0,0,482.912,483.4Z" transform="translate(-460.173 -473.028)" fill="#93d1f2"/>
</svg>
