<svg xmlns="http://www.w3.org/2000/svg" width="70.252" height="32.753" viewBox="0 0 70.252 32.753">
  <g id="Grupo_1094" data-name="Grupo 1094" transform="translate(-895.458 -537.294)">
    <g id="Grupo_1094-2" data-name="Grupo 1094">
      <path id="Caminho_1219" data-name="Caminho 1219" d="M913.782,566.1l-11.541,3.759a3.9,3.9,0,0,1-4.912-2.5l-1.679-5.153a3.9,3.9,0,0,1,2.5-4.912l11.541-3.761a3.9,3.9,0,0,1,4.911,2.5l1.679,5.155A3.9,3.9,0,0,1,913.782,566.1Zm-14.669-5.84a.779.779,0,0,0-.5.982l1.679,5.154a.78.78,0,0,0,.982.5l11.54-3.76a.78.78,0,0,0,.5-.983L911.636,557a.78.78,0,0,0-.983-.5Z" fill="#93d1f2"/>
      <path id="Caminho_1220" data-name="Caminho 1220" d="M931.085,560.457l-5.77,1.88a3.9,3.9,0,0,1-4.912-2.5l-1.679-5.155a3.9,3.9,0,0,1,2.5-4.912l5.77-1.879.965,2.963-5.77,1.88a.78.78,0,0,0-.5.983l1.679,5.153a.78.78,0,0,0,.982.5l5.77-1.879Z" fill="#93d1f2"/>
      <path id="Caminho_1221" data-name="Caminho 1221" d="M939.946,557.568l-5.769,1.881-.966-2.964,5.769-1.88a.777.777,0,0,0,.5-.982l-1.678-5.154a.781.781,0,0,0-.983-.5l-5.77,1.881-.965-2.964,5.769-1.88a3.9,3.9,0,0,1,4.913,2.5l1.679,5.153A3.9,3.9,0,0,1,939.946,557.568Z" fill="#93d1f2"/>
      <path id="Caminho_1222" data-name="Caminho 1222" d="M963.02,550.05l-11.541,3.76a3.9,3.9,0,0,1-4.912-2.5l-1.678-5.154a3.9,3.9,0,0,1,2.5-4.911l11.54-3.762a3.9,3.9,0,0,1,4.911,2.5l1.68,5.154A3.9,3.9,0,0,1,963.02,550.05Zm-14.669-5.839a.779.779,0,0,0-.5.982l1.68,5.155a.781.781,0,0,0,.983.5l11.539-3.761a.781.781,0,0,0,.5-.982l-1.68-5.155a.779.779,0,0,0-.982-.5Z" fill="#93d1f2"/>
      <path id="Caminho_1223" data-name="Caminho 1223" d="M925.072,557.107l-14.177,4.62a1.558,1.558,0,0,1-.964-2.964l14.175-4.621a1.559,1.559,0,0,1,.966,2.965Z" fill="#93d1f2"/>
      <path id="Caminho_1224" data-name="Caminho 1224" d="M951.237,548.58,937.06,553.2a1.559,1.559,0,0,1-.965-2.964l14.175-4.619a1.558,1.558,0,0,1,.967,2.963Z" fill="#93d1f2"/>
    </g>
    <g id="Grupo_1097" data-name="Grupo 1097">
      <g id="Grupo_1095" data-name="Grupo 1095">
        <line id="Linha_149" data-name="Linha 149" x1="0.99" y1="3.043" transform="translate(926.751 541.908)" fill="none" stroke="#93d1f2" stroke-linecap="round" stroke-width="1"/>
        <line id="Linha_150" data-name="Linha 150" x1="2.852" y1="1.45" transform="translate(922.94 544.136)" fill="none" stroke="#93d1f2" stroke-linecap="round" stroke-width="1"/>
        <line id="Linha_151" data-name="Linha 151" y1="2.852" x2="1.45" transform="translate(929.691 541.463)" fill="none" stroke="#93d1f2" stroke-linecap="round" stroke-width="1"/>
      </g>
      <g id="Grupo_1096" data-name="Grupo 1096">
        <line id="Linha_152" data-name="Linha 152" x2="0.991" y2="3.041" transform="translate(933.426 562.393)" fill="none" stroke="#93d1f2" stroke-linecap="round" stroke-width="1"/>
        <line id="Linha_153" data-name="Linha 153" x2="2.852" y2="1.45" transform="translate(935.375 561.757)" fill="none" stroke="#93d1f2" stroke-linecap="round" stroke-width="1"/>
        <line id="Linha_154" data-name="Linha 154" x1="1.449" y2="2.852" transform="translate(930.026 563.027)" fill="none" stroke="#93d1f2" stroke-linecap="round" stroke-width="1"/>
      </g>
    </g>
  </g>
</svg>
