<svg xmlns="http://www.w3.org/2000/svg" width="39.891" height="43.139" viewBox="0 0 39.891 43.139">
  <g id="Grupo_1110" data-name="Grupo 1110" transform="translate(-848.715 -473.028)">
    <path id="Caminho_1248" data-name="Caminho 1248" d="M871.455,483.4v-2.666h.489a2.166,2.166,0,0,0,2.071-2.241V475.27a2.164,2.164,0,0,0-2.071-2.242h-19.7a2.163,2.163,0,0,0-2.075,2.242v3.223a2.166,2.166,0,0,0,2.075,2.241h.486V483.4a7.267,7.267,0,0,0-4.015,6.493v21.275a4.944,4.944,0,0,0,4.946,4.943h16.866a4.942,4.942,0,0,0,4.942-4.943V489.893A7.267,7.267,0,0,0,871.455,483.4Z" fill="#93d1f2"/>
    <g id="Grupo_1109" data-name="Grupo 1109">
      <path id="Caminho_1249" data-name="Caminho 1249" d="M886.462,514.023a3.9,3.9,0,0,0,0-5.523l-4.917-4.916-5.523,5.523,4.917,4.916A3.9,3.9,0,0,0,886.462,514.023Z" fill="#93d1f2" stroke="#93d1f2" stroke-width="2"/>
      <path id="Caminho_1250" data-name="Caminho 1250" d="M871.1,498.666a3.906,3.906,0,0,0,0,5.523l4.917,4.918,5.523-5.523-4.917-4.918A3.906,3.906,0,0,0,871.1,498.666Z" fill="#fff" stroke="#93d1f2" stroke-width="2"/>
    </g>
  </g>
</svg>
