<svg xmlns="http://www.w3.org/2000/svg" width="34.671" height="40.858" viewBox="0 0 34.671 40.858">
  <g id="Grupo_1107" data-name="Grupo 1107" transform="translate(-658.145 -474.31)">
    <path id="Caminho_1245" data-name="Caminho 1245" d="M675.48,474.31A63.769,63.769,0,0,1,658.145,479v24.882s5.142,8.079,17.335,11.284c12.193-3.205,17.336-11.284,17.336-11.284V479A63.771,63.771,0,0,1,675.48,474.31Z" fill="#93d1f2"/>
    <path id="Caminho_1246" data-name="Caminho 1246" d="M675.48,511.743a27.715,27.715,0,0,1-14.034-8.933V481.873a72.506,72.506,0,0,0,14.034-4,72.508,72.508,0,0,0,14.034,4v20.94A27.745,27.745,0,0,1,675.48,511.743Z" fill="none" stroke="#fff" stroke-width="2"/>
  </g>
</svg>
