<svg xmlns="http://www.w3.org/2000/svg" width="45.254" height="55.276" viewBox="0 0 45.254 55.276">
  <g id="noun-timer-2365806" transform="translate(-146.294 -29.929)">
    <path id="Caminho_1412" data-name="Caminho 1412" d="M314.573,81.837a1.169,1.169,0,0,1-.2-.017,20.619,20.619,0,0,0-6.947,0,1.185,1.185,0,0,1-1.386-1.168V75.439a1.185,1.185,0,0,1,1.185-1.185h7.348a1.185,1.185,0,0,1,1.185,1.185v5.212a1.186,1.186,0,0,1-1.185,1.186ZM310.9,79.153a22.97,22.97,0,0,1,2.489.136V76.625H308.41v2.664a22.97,22.97,0,0,1,2.489-.136Z" transform="translate(-142.09 -39.426)" fill="#006eb7"/>
    <path id="Caminho_1413" data-name="Caminho 1413" d="M448.706,127.328a1.186,1.186,0,0,1-.828-.337,20.5,20.5,0,0,0-3.291-2.612,1.185,1.185,0,0,1-.3-1.725l2.591-3.342a1.185,1.185,0,0,1,1.663-.21l3.512,2.723a1.185,1.185,0,0,1,.211,1.663l-2.623,3.382a1.187,1.187,0,0,1-.855.456l-.081,0Zm-1.771-4.22q.841.606,1.625,1.289l1.106-1.426-1.639-1.271Z" transform="translate(-264.839 -79.096)" fill="#006eb7"/>
    <path id="Caminho_1414" data-name="Caminho 1414" d="M168.808,164.07a22.542,22.542,0,0,1-13.675-4.57,22.92,22.92,0,0,1-8.094-11.577,1.185,1.185,0,1,1,2.269-.686,20.507,20.507,0,0,0,19.5,14.463,20.228,20.228,0,0,0,16.229-8.058,1.185,1.185,0,0,1,1.887,1.434,22.944,22.944,0,0,1-7.842,6.546,22.5,22.5,0,0,1-10.274,2.448ZM189.9,147a1.172,1.172,0,0,1-.246-.026,1.185,1.185,0,0,1-.914-1.4,20.527,20.527,0,0,0,.441-4.236,20.214,20.214,0,0,0-6.138-14.571,20.5,20.5,0,0,0-3.291-2.612,20.147,20.147,0,0,0-7.467-2.89,20.6,20.6,0,0,0-6.947,0,20.286,20.286,0,0,0-16.683,17.116,1.185,1.185,0,1,1-2.346-.341,22.756,22.756,0,0,1,18.627-19.111,22.983,22.983,0,0,1,7.749,0,22.514,22.514,0,0,1,8.341,3.228,22.843,22.843,0,0,1,3.671,2.915,22.563,22.563,0,0,1,6.852,16.267,22.9,22.9,0,0,1-.492,4.726,1.186,1.186,0,0,1-1.159.94Z" transform="translate(0 -78.865)" fill="#006eb7"/>
    <path id="Caminho_1415" data-name="Caminho 1415" d="M218.274,208.933a16.372,16.372,0,0,1-16.367-16.024,1.185,1.185,0,1,1,2.37-.049,14,14,0,1,0,2.462-8.236,1.185,1.185,0,1,1-1.951-1.346,16.371,16.371,0,1,1,13.485,25.654Z" transform="translate(-49.466 -130.096)" fill="#006eb7"/>
    <path id="Caminho_1416" data-name="Caminho 1416" d="M315.345,293.98a4.306,4.306,0,1,1,4.306-4.306A4.311,4.311,0,0,1,315.345,293.98Zm0-6.242a1.936,1.936,0,1,0,1.936,1.936A1.938,1.938,0,0,0,315.345,287.738Z" transform="translate(-146.537 -227.208)" fill="#006eb7"/>
    <path id="Caminho_1417" data-name="Caminho 1417" d="M280.047,37.2H262.9a1.185,1.185,0,0,1-1.185-1.185v-4.9a1.185,1.185,0,0,1,1.185-1.185h17.145a1.185,1.185,0,0,1,1.185,1.185v4.9A1.185,1.185,0,0,1,280.047,37.2Zm-15.96-2.371h14.776V32.3H264.087Z" transform="translate(-102.666)" fill="#006eb7"/>
    <path id="Caminho_1418" data-name="Caminho 1418" d="M278.556,251.968a1.181,1.181,0,0,1-.838-.347l-4.444-4.444a1.185,1.185,0,1,1,1.676-1.676l4.444,4.444a1.185,1.185,0,0,1-.838,2.023Z" transform="translate(-112.637 -191.438)" fill="#006eb7"/>
  </g>
</svg>
