<svg xmlns="http://www.w3.org/2000/svg" width="133.446" height="75.07" viewBox="0 0 133.446 75.07">
  <g id="Grupo_1125" data-name="Grupo 1125" transform="translate(-740.221 -1694.772)">
    <g id="noun-nutrition-consultant-3683735" transform="translate(798.846 1694.772)">
      <path id="Caminho_1276" data-name="Caminho 1276" d="M315,157.5h2.494v2.494H315Z" transform="translate(-282.577 -137.548)" fill="#006eb7"/>
      <path id="Caminho_1277" data-name="Caminho 1277" d="M367.5,157.5h2.494v2.494H367.5Z" transform="translate(-327.595 -137.548)" fill="#006eb7"/>
      <path id="Caminho_1278" data-name="Caminho 1278" d="M333.99,173.884l2.49-3.735,2.075,1.383-2.49,3.735Z" transform="translate(-298.861 -148.394)" fill="#006eb7"/>
      <path id="Caminho_1279" data-name="Caminho 1279" d="M329.687,219.62l-1.122,2.229a6.9,6.9,0,0,0,6.11,0l-1.122-2.229A4.325,4.325,0,0,1,329.687,219.62Z" transform="translate(-294.209 -190.815)" fill="#006eb7"/>
      <path id="Caminho_1280" data-name="Caminho 1280" d="M101.337,166.751l2.229-1.122-1.247-2.494a1.253,1.253,0,0,0-1.122-.686H91.236a1.251,1.251,0,0,1-1.247-1.247V143.744a1.251,1.251,0,0,1,1.247-1.247h12.47V140H91.236a3.752,3.752,0,0,0-3.741,3.741V161.2a3.752,3.752,0,0,0,3.741,3.741h9.212Z" transform="translate(-87.495 -122.544)" fill="#006eb7"/>
      <path id="Caminho_1281" data-name="Caminho 1281" d="M122.5,183.75h2.494v2.494H122.5Z" transform="translate(-117.512 -160.057)" fill="#006eb7"/>
      <path id="Caminho_1282" data-name="Caminho 1282" d="M157.5,183.75h6.235v2.494H157.5Z" transform="translate(-147.524 -160.057)" fill="#006eb7"/>
      <path id="Caminho_1283" data-name="Caminho 1283" d="M122.5,218.75h2.494v2.494H122.5Z" transform="translate(-117.512 -190.069)" fill="#006eb7"/>
      <path id="Caminho_1284" data-name="Caminho 1284" d="M157.5,218.75h6.235v2.494H157.5Z" transform="translate(-147.524 -190.069)" fill="#006eb7"/>
      <path id="Caminho_1285" data-name="Caminho 1285" d="M122.5,253.75h2.494v2.494H122.5Z" transform="translate(-117.512 -220.081)" fill="#006eb7"/>
      <path id="Caminho_1286" data-name="Caminho 1286" d="M157.5,253.75h4.988v2.494H157.5Z" transform="translate(-147.524 -220.081)" fill="#006eb7"/>
      <path id="Caminho_1287" data-name="Caminho 1287" d="M198.589,52.417h-7.482a4.99,4.99,0,0,0-9.446-2.245,8.4,8.4,0,0,0-2.151-3.616.517.517,0,0,1,0-.733,6.529,6.529,0,0,0,0-9.243.517.517,0,0,1,0-.733,5.444,5.444,0,0,0,1.606-3.9,14.469,14.469,0,0,0-14.45-14.45h-8.511a14.469,14.469,0,0,0-14.45,14.45,5.508,5.508,0,0,0,1.606,3.9.517.517,0,0,1,0,.733,6.529,6.529,0,0,0,0,9.243.517.517,0,0,1,0,.733,8.583,8.583,0,0,0-1.606,9.914l2.432,4.863-2.79,1.122a13.687,13.687,0,0,0-8.386,10.163L131.251,92.1l2.447.468,3.71-19.485a11.146,11.146,0,0,1,6.859-8.324l5.674-2.26v9.867a1.251,1.251,0,0,0,1.247,1.247,1.209,1.209,0,0,0,.826-.312L157.2,68.69a7.706,7.706,0,0,1,3.944,6.765v.655a1.247,1.247,0,0,0,2.494,0v-.655a7.706,7.706,0,0,1,3.944-6.765l4.785,4.24v6.422a4.416,4.416,0,0,0-4.3-.343l.53-2.665-2.447-.483-.795,3.959a4.391,4.391,0,0,0-7.279,2.1,7.76,7.76,0,0,0,.873,5.876l1.606,2.681a3.8,3.8,0,0,0,5.565,1.06,3.8,3.8,0,0,0,5.565-1.06l.234-.374.468.7a3.344,3.344,0,0,0,2.494,1.5,2.525,2.525,0,0,0,.343.016,3.4,3.4,0,0,0,3.4-3.4V87.831l4.411-4.411,2.478-.826a5.526,5.526,0,0,0,1.715-.92A11.75,11.75,0,0,0,186.1,86.1h-3.725V88.6h3.741v3.741h2.494V88.58a11.853,11.853,0,0,0,7.747-3.46A11.006,11.006,0,0,0,197.342,84v5.83h-6.235v2.494h7.482a1.251,1.251,0,0,0,1.247-1.247V53.663a1.251,1.251,0,0,0-1.247-1.247Zm-14.964,0a2.494,2.494,0,0,1,4.988,0v1.247h-4.988ZM148.475,60.4l-2.525-5.05a6.1,6.1,0,0,1,1.138-7.03,3.02,3.02,0,0,0,0-4.255,4.055,4.055,0,0,1,0-5.721,3.02,3.02,0,0,0,0-4.255,3.02,3.02,0,0,1-.889-2.135,11.978,11.978,0,0,1,11.956-11.956h8.511A11.978,11.978,0,0,1,178.622,31.95a3.008,3.008,0,0,1-.889,2.135,3.02,3.02,0,0,0,0,4.255,4.055,4.055,0,0,1,0,5.721,3.02,3.02,0,0,0,0,4.255,6.061,6.061,0,0,1,1.777,4.1h-5.861a1.251,1.251,0,0,0-1.247,1.247v5.144l-2.494-1V51.186a13.6,13.6,0,0,0,3.741-9.431V33.712a1.237,1.237,0,0,0-1-1.216l-2.572-.514a3.323,3.323,0,0,1-2.665-3.258,1.247,1.247,0,0,0-2.245-.748L162.8,31.14a3.33,3.33,0,0,1-2.65,1.325h-7.7a1.251,1.251,0,0,0-1.247,1.247v8.059a13.631,13.631,0,0,0,3.741,9.431v6.625Zm17.411-9.119-2.79,1.746a1.267,1.267,0,0,1-1.325,0l-2.79-1.746a11.151,11.151,0,0,1-5.269-9.524v-6.8h6.453a5.8,5.8,0,0,0,4.645-2.323l.842-1.122a5.83,5.83,0,0,0,3.959,2.915l1.559.312v7.03a11.193,11.193,0,0,1-5.284,9.508Zm1.528,1.98v4.692l-4.988,2.993-4.988-2.993V53.259c.078.047.14.094.218.14l2.79,1.746a3.772,3.772,0,0,0,3.959,0L167.2,53.4c.078-.047.14-.094.218-.14ZM152.45,69.594V61.488l3.632-1.45,4.255,2.556Zm9.976.935a10.088,10.088,0,0,0-3.258-3.57l3.258-2.9,3.258,2.9A10.085,10.085,0,0,0,162.426,70.529Zm2.1-7.934,4.255-2.556,3.632,1.45v8.106Zm4.146,23.475a3.363,3.363,0,0,0,1.341,2.385l-.436.733a1.288,1.288,0,0,1-1.107.624,1.352,1.352,0,0,1-.92-.374l-.5-.5a1.251,1.251,0,0,0-1.761,0l-.5.5a1.3,1.3,0,0,1-2.026-.249l-1.606-2.681a5.264,5.264,0,0,1-.592-3.99,1.888,1.888,0,0,1,2.291-1.372,1.762,1.762,0,0,1,.873.5l1.574,1.574a1.251,1.251,0,0,0,1.761,0l1.574-1.574a1.891,1.891,0,0,1,2.665,0,1.835,1.835,0,0,1,.436.7,3.41,3.41,0,0,0-3.071,3.725Zm7.856.359a1.236,1.236,0,0,0-.358.888v1.606a.9.9,0,0,1-.9.9.925.925,0,0,1-.764-.405l-1.029-1.543a1.2,1.2,0,0,0-.343-.343l-1.543-1.029a.906.906,0,0,1-.249-1.263.925.925,0,0,1,.764-.405h1.606a1.262,1.262,0,0,0,.888-.359l4.1-4.1,1.98,1.98Zm9.462-6.968a3.158,3.158,0,0,1-1.231.764l-2.026.67-2.65-2.65.67-2.026a3.157,3.157,0,0,1,.764-1.231l3.632-3.632a3.163,3.163,0,1,1,4.474,4.474Zm8.589,3.866a9.288,9.288,0,0,1-5.954,2.728,9.287,9.287,0,0,1,2.728-5.954c.094-.094.171-.171.265-.249a6.268,6.268,0,0,0,3.211,3.211,2.009,2.009,0,0,1-.249.265Zm1.746-2.369a3.717,3.717,0,0,1-2.572-2.572,9.471,9.471,0,0,1,3.57-1A9.553,9.553,0,0,1,196.329,80.957Zm1.013-6.079a11.916,11.916,0,0,0-4.988,1.4,5.656,5.656,0,0,0-8.978-6.687l-3.632,3.632a5.637,5.637,0,0,0-1.372,2.213l-.826,2.478-2.65,2.665V54.911h6.235a1.251,1.251,0,0,0,1.247,1.247h7.482a1.251,1.251,0,0,0,1.247-1.247h6.235Z" transform="translate(-125.016 -17.501)" fill="#006eb7"/>
      <path id="Caminho_1288" data-name="Caminho 1288" d="M237.188,432.594a11.771,11.771,0,0,0-1.076,13.031v2.151h2.494v-2.494a1.308,1.308,0,0,0-.171-.639,9.27,9.27,0,0,1,.7-10.49l.452-.561-1.948-1.559Z" transform="translate(-213.665 -372.956)" fill="#006eb7"/>
      <path id="Caminho_1289" data-name="Caminho 1289" d="M457.54,303.858l3.737-3.737,1.764,1.764-3.737,3.737Z" transform="translate(-404.803 -259.843)" fill="#006eb7"/>
      <path id="Caminho_1290" data-name="Caminho 1290" d="M507.5,306.25h8.729v2.494H507.5Z" transform="translate(-447.643 -265.099)" fill="#006eb7"/>
      <path id="Caminho_1291" data-name="Caminho 1291" d="M457.54,347.608l3.737-3.737,1.764,1.764-3.737,3.737Z" transform="translate(-404.803 -297.358)" fill="#006eb7"/>
      <path id="Caminho_1292" data-name="Caminho 1292" d="M507.5,341.25h8.729v2.494H507.5Z" transform="translate(-447.643 -295.111)" fill="#006eb7"/>
    </g>
    <g id="noun-physician-3308765" transform="translate(740.221 1694.914)">
      <path id="Caminho_1407" data-name="Caminho 1407" d="M317.494,106.247A1.247,1.247,0,1,1,316.247,105a1.247,1.247,0,0,1,1.247,1.247" transform="translate(-293.8 -92.53)" fill="#006eb7"/>
      <path id="Caminho_1408" data-name="Caminho 1408" d="M369.994,106.247A1.247,1.247,0,1,1,368.747,105a1.247,1.247,0,0,1,1.247,1.247" transform="translate(-338.818 -92.53)" fill="#006eb7"/>
      <path id="Caminho_1409" data-name="Caminho 1409" d="M332.5,136.238h1.247a3.744,3.744,0,0,0,3.741-3.741V131.25h-2.494V132.5a1.248,1.248,0,0,1-1.247,1.247H332.5Z" transform="translate(-308.806 -115.039)" fill="#006eb7"/>
      <path id="Caminho_1410" data-name="Caminho 1410" d="M166.611,86.97l4.988,4.988a1.247,1.247,0,0,0,.882.365h44.892a1.247,1.247,0,0,0,1.247-1.247v-21.2a1.256,1.256,0,0,0-.048-.343l-4.988-17.458a1.247,1.247,0,0,0-.841-.851l-12.007-3.6-2.663-4.439h0a9.971,9.971,0,0,0,4.336-8.223V22.491a4.993,4.993,0,0,0-4.988-4.988h-4.988a4.968,4.968,0,0,0-3.294,1.247H186.2a3.744,3.744,0,0,0-3.741,3.741v12.47a9.971,9.971,0,0,0,4.336,8.223l-2.663,4.439-12.007,3.6h0a1.248,1.248,0,0,0-.841.852l-4.988,17.458a1.256,1.256,0,0,0-.048.343v4.988a1.245,1.245,0,0,0,.315.828l4.5,5.063-4.45,4.45a1.247,1.247,0,0,0,0,1.764Zm16.362,2.859-3.741-3.741,3.418-3.418,4.647,2.788-.874,4.371Zm5.718-26.075,2.474-13.606a1.246,1.246,0,0,0-.112-.781l-1.016-2.032.84-2.52h0a9.969,9.969,0,0,0,3.109,0l.84,2.52-1.016,2.032h0a1.246,1.246,0,0,0-.112.781l2.474,13.606V79.422l-7.482-6.734Zm7.482,26.075h-5.981l5.981-6.836ZM194.425,81.2l-4.842,5.533.33-1.652h0a1.248,1.248,0,0,0-.581-1.314l-5.924-3.554L180.649,74.7l3.1-3.1Zm21.7-11.152V89.828h-4.988V76.111h-2.494V89.828h-9.976V63.861l4.674-12.854,1.561.468V61.618h0a9.626,9.626,0,0,0-3.741,7.627v2.986a1.247,1.247,0,0,0,1.247,1.247H204.9V70.984h-1.247V69.245a7.138,7.138,0,0,1,2.494-5.428,7.138,7.138,0,0,1,2.494,5.428v1.739H207.4v2.494h2.494a1.247,1.247,0,0,0,1.247-1.247V69.245a9.625,9.625,0,0,0-3.741-7.627V52.223l3.976,1.193Zm-16.57-20.179,1.393.418-3.126,8.6-1.6-8.775,1.061-2.122a1.246,1.246,0,0,0,.068-.952l-.149-.445,1.637,2.728a1.247,1.247,0,0,0,.711.552ZM192.432,20h4.988a2.5,2.5,0,0,1,2.494,2.494v2.494h-7.482a2.494,2.494,0,1,1,0-4.988Zm-7.482,2.494a1.248,1.248,0,0,1,1.247-1.247H187.6a4.982,4.982,0,0,0,.1,2.839l-2.756,1.378Zm0,12.47V28.25l4.132-2.066a4.966,4.966,0,0,0,3.35,1.3h7.482v7.482a7.482,7.482,0,0,1-14.964,0Zm.359,14.911a1.25,1.25,0,0,0,.711-.553l1.637-2.728-.149.445a1.246,1.246,0,0,0,.068.952l1.061,2.122-1.6,8.775-3.126-8.6ZM178.715,59.9a1.247,1.247,0,0,0,1.247-1.247v-.91a2.494,2.494,0,1,1-2.494,0v.91a1.247,1.247,0,0,0,1.247,1.247Zm-9.976,10.151,4.753-16.634,3.976-1.193v2.846a4.988,4.988,0,1,0,2.494,0V51.477l1.561-.468L186.2,63.862v6.582l-1.66-1.494h0a1.247,1.247,0,0,0-1.716.045l-3.349,3.349-.61-1.22,2.215-4.43-2.231-1.116-2.494,4.988h0a1.245,1.245,0,0,0,0,1.116l4.586,9.172-3.417,3.417-8.783-9.88Zm3.981,12.572,3.816,4.293c.016.018.034.035.051.052h0l2.86,2.859H173l-3.741-3.741Z" transform="translate(-166.245 -17.503)" fill="#006eb7"/>
    </g>
  </g>
</svg>
