<svg xmlns="http://www.w3.org/2000/svg" width="129.41" height="81.128" viewBox="0 0 129.41 81.128">
  <g id="Grupo_1143" data-name="Grupo 1143" transform="translate(2.012 1.624)">
    <path id="Caminho_1139" data-name="Caminho 1139" d="M379.77,3165.957a4.141,4.141,0,0,1-3.392-6.507l5.509-7.9a4.14,4.14,0,1,1,6.791,4.736l-5.508,7.9A4.136,4.136,0,0,1,379.77,3165.957Z" transform="translate(-355.118 -3103.384)" fill="none" stroke="#006eb7" stroke-linecap="round" stroke-linejoin="round" stroke-width="3"/>
    <path id="Caminho_1140" data-name="Caminho 1140" d="M399.786,3176.657a4.14,4.14,0,0,1-3.392-6.507L400.68,3164a4.14,4.14,0,1,1,6.793,4.734l-4.286,6.153A4.135,4.135,0,0,1,399.786,3176.657Z" transform="translate(-347.51 -3098.653)" fill="none" stroke="#006eb7" stroke-linecap="round" stroke-linejoin="round" stroke-width="3"/>
    <path id="Caminho_1141" data-name="Caminho 1141" d="M386.251,3170.245a4.141,4.141,0,0,1-3.392-6.508l6.982-10.018a4.14,4.14,0,0,1,6.793,4.736l-6.982,10.017A4.138,4.138,0,0,1,386.251,3170.245Z" transform="translate(-352.655 -3102.558)" fill="none" stroke="#006eb7" stroke-linecap="round" stroke-linejoin="round" stroke-width="3"/>
    <path id="Caminho_1142" data-name="Caminho 1142" d="M392.412,3174.842a4.14,4.14,0,0,1-3.392-6.507L396,3158.316a4.139,4.139,0,0,1,6.793,4.732l-6.982,10.02A4.135,4.135,0,0,1,392.412,3174.842Z" transform="translate(-350.313 -3100.812)" fill="none" stroke="#006eb7" stroke-linecap="round" stroke-linejoin="round" stroke-width="3"/>
    <line id="Linha_115" data-name="Linha 115" x2="8.315" y2="7.183" transform="translate(14.961 45.989)" fill="none" stroke="#006eb7" stroke-linecap="round" stroke-linejoin="round" stroke-width="3"/>
    <line id="Linha_116" data-name="Linha 116" x1="12.527" y1="4.604" transform="translate(30.673 14.447)" fill="none" stroke="#006eb7" stroke-linecap="round" stroke-linejoin="round" stroke-width="3"/>
    <path id="Caminho_1143" data-name="Caminho 1143" d="M404.425,3180.385l5.959,2.945a4.14,4.14,0,1,0,4.306-7.072l-5.892-3.589,1.045-.615,10.429,6.351a4.139,4.139,0,1,0,4.307-7.07l-5.978-3.64,1.132-.563,10.429,6.353a4.139,4.139,0,0,0,4.307-7.07l-5.978-3.642,1.13-.563,10.429,6.353a4.139,4.139,0,1,0,4.307-7.07l-10.429-6.353h0l-32.775-19.963" transform="translate(-345.42 -3108.932)" fill="none" stroke="#006eb7" stroke-linecap="round" stroke-linejoin="round" stroke-width="3"/>
    <rect id="Retângulo_852" data-name="Retângulo 852" width="42.716" height="15.18" rx="1" transform="translate(0 41.979) rotate(-63.521)" fill="none" stroke="#006eb7" stroke-linecap="round" stroke-linejoin="round" stroke-width="3"/>
    <path id="Caminho_1144" data-name="Caminho 1144" d="M448.75,3160.078l11.118-5.538a1.38,1.38,0,0,0,.62-1.851l-17.815-35.764a1.381,1.381,0,0,0-1.851-.62l-11.116,5.539a1.379,1.379,0,0,0-.621,1.85l17.817,35.764A1.379,1.379,0,0,0,448.75,3160.078Z" transform="translate(-334.858 -3116.16)" fill="none" stroke="#006eb7" stroke-linecap="round" stroke-linejoin="round" stroke-width="3"/>
    <line id="Linha_117" data-name="Linha 117" x1="12.153" y2="10.954" transform="translate(99.152 41.819)" fill="none" stroke="#006eb7" stroke-linecap="round" stroke-linejoin="round" stroke-width="3"/>
    <path id="Caminho_1145" data-name="Caminho 1145" d="M406.284,3141.138s-.312,3.32-5.348,6.871-13.291-1.146-13.291-1.146,5.048-11.448,9.285-18.889,17.285-10.187,24.5-7.44,17.846,7.107,17.846,7.107l6.851-2.517" transform="translate(-350.553 -3114.893)" fill="none" stroke="#006eb7" stroke-linecap="round" stroke-linejoin="round" stroke-width="3"/>
    <path id="Caminho_1146" data-name="Caminho 1146" d="M412.056,3142.451c4.343,2.646,9.823,2.626,13.831-2.3" transform="translate(-341.275 -3107.04)" fill="none" stroke="#006eb7" stroke-linecap="round" stroke-linejoin="round" stroke-width="1"/>
  </g>
</svg>
