<svg xmlns="http://www.w3.org/2000/svg" width="142.38" height="142.38" viewBox="0 0 142.38 142.38">
  <g id="noun-pharmacist-3307833" transform="translate(0.001)">
    <path id="Caminho_1328" data-name="Caminho 1328" d="M245,149.492h2.373a7.125,7.125,0,0,0,7.119-7.119V140h-4.746v2.373a2.375,2.375,0,0,1-2.373,2.373H245Z" transform="translate(-202.285 -106.777)" fill="#006eb7"/>
    <path id="Caminho_1329" data-name="Caminho 1329" d="M232.246,116.123a2.373,2.373,0,1,1-2.373-2.373,2.373,2.373,0,0,1,2.373,2.373" transform="translate(-189.531 -87.646)" fill="#006eb7"/>
    <path id="Caminho_1330" data-name="Caminho 1330" d="M284.746,116.123a2.373,2.373,0,1,1-2.373-2.373,2.373,2.373,0,0,1,2.373,2.373" transform="translate(-227.793 -87.646)" fill="#006eb7"/>
    <path id="Caminho_1331" data-name="Caminho 1331" d="M222.451,84.109a7.03,7.03,0,0,1-4.441-6.559V57.836a2.373,2.373,0,0,0-2.373-2.373h-23.73a2.373,2.373,0,0,0-2.373,2.373V77.55a7.03,7.03,0,0,1-4.441,6.559,11.757,11.757,0,0,0-7.424,10.966v.73h-.661l-.87-4.931h0a11.849,11.849,0,0,0-6.866-8.78L153.094,74.9l-5.65-7.533A18.941,18.941,0,0,0,153.94,53.09V30.547A13.068,13.068,0,0,0,140.888,17.5H127.837A11.878,11.878,0,0,0,115.972,29.36V53.09a18.941,18.941,0,0,0,6.495,14.279l-5.65,7.533-16.179,7.19a11.844,11.844,0,0,0-6.865,8.78L87.533,126.24h0a2.325,2.325,0,0,0-.029.594l2.373,30.849a2.372,2.372,0,0,0,2.366,2.191H220.384a9.5,9.5,0,0,0,9.492-9.492V95.075a11.757,11.757,0,0,0-7.424-10.966Zm-28.172-23.9h18.984v4.746H199.025V69.7h14.238v4.746H194.279ZM182.414,95.075a7.03,7.03,0,0,1,4.441-6.559,11.745,11.745,0,0,0,7.312-9.322h19.209a11.745,11.745,0,0,0,7.312,9.322,7.03,7.03,0,0,1,4.441,6.559v14.968h-26.1V107.67a2.373,2.373,0,0,0-2.373-2.373h-3.28l-4.09-8.18A2.372,2.372,0,0,0,187.16,95.8h-4.746Zm7.119,26.833V110.043h4.746v11.865ZM164.9,105.3l2.373-4.746h18.424l2.373,4.746Zm19.891,4.746v11.865h-4.746v-7.119H175.3v7.119h-4.746v-4.746H165.8v4.746h-7.119V110.043ZM163.43,126.654h26.1v16.611h-26.1Zm30.849,0h2.373a2.373,2.373,0,0,0,2.373-2.373v-9.492h26.1V131.4H194.279ZM171.463,91.7l.724,4.106H165.8a2.372,2.372,0,0,0-2.122,1.312l-4.09,8.18h-3.28a2.373,2.373,0,0,0-2.373,2.373v16.611a2.373,2.373,0,0,0,2.373,2.373h2.373V155.13H137.327V119.98L152.874,80l14.468,6.43h0a7.107,7.107,0,0,1,4.12,5.268Zm-26.771-3.75-6.382-6.382,7.914-7.914,2.652,3.536Zm-1.9-17.573-7.835,7.835-7.835-7.835a18.911,18.911,0,0,0,15.67,0ZM131.6,81.567l-6.382,6.382-4.184-10.759,2.652-3.536Zm-4.458,11.17,7.814-7.814,7.814,7.814.1-.1-7.915,20.352-7.915-20.351Zm22.052-62.189V31.74a11.819,11.819,0,0,0-4.841-2.157,10.6,10.6,0,0,0-1.567-7.119,8.318,8.318,0,0,1,6.408,8.084Zm-21.357-8.305h5.932a5.933,5.933,0,1,1,0,11.865h-.2a5.694,5.694,0,0,1-4.051-1.678,10.407,10.407,0,0,0-7.407-3.068h-1.39a7.125,7.125,0,0,1,7.119-7.119Zm-7.119,30.849V34.108h1.39a5.694,5.694,0,0,1,4.051,1.678,10.407,10.407,0,0,0,7.407,3.068h.2a10.674,10.674,0,0,0,8.858-4.723,7.129,7.129,0,0,1,6.566,7.1V53.091a14.238,14.238,0,0,1-28.476,0Zm-14.238,61.7v40.341H94.437l-2.181-28.359L98.444,91.7a7.108,7.108,0,0,1,4.12-5.268L117.033,80l15.547,39.98v35.15H111.224V114.79Zm56.952,40.341v-7.119h26.1v7.119Zm56.952,0h-26.1V136.147h30.849v14.238a4.753,4.753,0,0,1-4.746,4.746Z" transform="translate(-87.496 -17.495)" fill="#006eb7"/>
  </g>
</svg>
