<svg id="noun-physical-therapist-3307837" xmlns="http://www.w3.org/2000/svg" width="142.38" height="142.381" viewBox="0 0 142.38 142.381">
  <path id="Caminho_1366" data-name="Caminho 1366" d="M192.5,140.742h2.373a7.125,7.125,0,0,0,7.119-7.119V131.25h-4.746v2.373A2.375,2.375,0,0,1,194.873,136H192.5Z" transform="translate(-164.024 -100.401)" fill="#006eb7"/>
  <path id="Caminho_1367" data-name="Caminho 1367" d="M179.746,107.373A2.373,2.373,0,1,1,177.373,105a2.373,2.373,0,0,1,2.373,2.373" transform="translate(-151.27 -81.27)" fill="#006eb7"/>
  <path id="Caminho_1368" data-name="Caminho 1368" d="M232.246,107.373A2.373,2.373,0,1,1,229.873,105a2.373,2.373,0,0,1,2.373,2.373" transform="translate(-189.532 -81.27)" fill="#006eb7"/>
  <path id="Caminho_1369" data-name="Caminho 1369" d="M529.746,308.623A2.375,2.375,0,0,1,527.373,311H525v4.746h2.373a7.125,7.125,0,0,0,7.119-7.119V306.25h-4.746Z" transform="translate(-406.35 -227.941)" fill="#006eb7"/>
  <path id="Caminho_1370" data-name="Caminho 1370" d="M215.641,62.587h-9.492a14.255,14.255,0,0,0-14.238,14.238V98.1L187,92.363l-2.251-11.257c-.008-.041-.021-.081-.032-.121h0l-1.244-4.873,4.572-1.828h0a2.374,2.374,0,0,0,1.492-2.2V62.587a2.372,2.372,0,0,0-.4-1.316l-4.746-7.119a2.372,2.372,0,0,0-1.975-1.057H177.6l-.135-.528.6-.8a32.915,32.915,0,0,0,6.6-18.866,5.736,5.736,0,0,0-3.164-5.289.187.187,0,0,0-.025-.012,5.71,5.71,0,0,0-4.5-.234,7.121,7.121,0,0,0-8.23-4.983l-1.768.354a13.255,13.255,0,0,0-10.552,14.642c0,.033.008.066.015.1l2.289,13.635c0,.015.005.03.008.044L160.763,62l-2.648.662h0a2.372,2.372,0,0,0-1.727,1.727l-2.2,8.8L147.735,79.1l-15.562-8.646-1.246-3.736h0a18.983,18.983,0,0,0,8.778-15.995V34.111A16.631,16.631,0,0,0,123.094,17.5h-4.746a16.631,16.631,0,0,0-16.611,16.611V50.722a18.983,18.983,0,0,0,8.778,15.995l-1.246,3.736L93.6,79.157a11.874,11.874,0,0,0-6.1,10.372V105.3a2.374,2.374,0,0,0,.994,1.931l3.752,2.68v47.6a2.373,2.373,0,0,0,2.373,2.373H149.2a2.373,2.373,0,0,0,2.373-2.373v-47.46h7.119a2.371,2.371,0,0,0,2.089-1.248l4.49-8.337,2.96,14.8h0a2.385,2.385,0,0,0,.5,1.054l11.453,13.744,4.64,27.841h0a2.375,2.375,0,0,0,2.341,1.983h40.341a2.373,2.373,0,0,0,2.373-2.373V114.795a2.373,2.373,0,0,0-1.623-2.251l-3.675-1.225h0a18.917,18.917,0,0,0,5.3-13.135V76.826a14.255,14.255,0,0,0-14.238-14.238ZM196.657,76.825a9.5,9.5,0,0,1,9.492-9.492h9.492a9.5,9.5,0,0,1,9.492,9.492V79.2h-6.827a10.143,10.143,0,0,1-9.855-7.694,2.373,2.373,0,0,0-4.6,0l-.071.283a9.766,9.766,0,0,1-7.119,7.121ZM181.149,57.841l3.643,5.464v7.168l-2.5,1-3.481-13.633ZM163.4,50.307l-2.277-13.56h0a8.509,8.509,0,0,1,6.78-9.352l1.768-.354a2.372,2.372,0,0,1,2.838,2.327v2.354h0a10.9,10.9,0,0,0-4.746,9.029v1.813h4.746V40.749a6.178,6.178,0,0,1,3.434-5.558,2.378,2.378,0,0,0,1-.941l1.149-2a.98.98,0,0,1,1.286-.389l.014.006a.977.977,0,0,1,.529.9,28.187,28.187,0,0,1-5.655,16.16l-1.28,1.707a2.373,2.373,0,0,0-.4,2.011l7.091,27.765-9.6,5.487-.855-4.56,4.773-2.386h0a2.372,2.372,0,0,0,1.312-2.122V64.959a2.372,2.372,0,0,0-1.312-2.122l-4.746-2.373a2.366,2.366,0,0,0-1.637-.18l-2.231.558ZM157.92,76.2a2.37,2.37,0,0,0,.7-1.174l2.028-8.11L167.9,65.1l2.649,1.324v8.932l-8.18,4.09h0a2.367,2.367,0,0,0-.781.625l-30.136,37.092h-7.8l-11.314-5.657,6.979-12.562,7.46,3.73h0a2.371,2.371,0,0,0,2.665-.373ZM118.349,22.246H123.1a11.852,11.852,0,0,1,9.466,4.722A14.706,14.706,0,0,1,119.9,34.111H106.484a11.878,11.878,0,0,1,11.865-11.865ZM106.484,50.722V38.857H119.9a19.424,19.424,0,0,0,14.872-6.85,11.882,11.882,0,0,1,.191,2.1V50.722a14.238,14.238,0,0,1-28.476,0Zm14.238,18.984a18.933,18.933,0,0,0,5.887-.939l.89,2.671-3.709,3.709a2.38,2.38,0,0,0-.3.362l-2.771,4.157-2.771-4.157a2.378,2.378,0,0,0-.3-.362l-3.709-3.709.89-2.671a18.932,18.932,0,0,0,5.887.939ZM92.246,89.529a7.121,7.121,0,0,1,3.662-6.223l14.91-8.283,3.314,3.314,4.616,6.923h0a2.374,2.374,0,0,0,3.949,0l4.616-6.923,3.314-3.315,13.422,7.457L127.442,97.7l-8.031-4.015-9.492-4.746L107.8,93.187l7.275,3.636L105.7,113.69l-13.454-9.611Zm54.579,65.606H96.992V113.3L105.1,119.1a2.373,2.373,0,0,0,3.454-.779l1.476-2.657,12,6h0a2.367,2.367,0,0,0,1.062.251h9.492a2.376,2.376,0,0,0,1.842-.876l8.927-10.989h3.468ZM157.273,105.3h-10.06l17.606-21.669.891,4.754L164.63,89h0a2.373,2.373,0,0,0-1.15,2.526l.326,1.634Zm67.862,49.833H189.177l-4.415-26.493a2.376,2.376,0,0,0-.518-1.129l-11.479-13.775-4.293-21.462,12.267-7.01,1.728,8.637h0a2.381,2.381,0,0,0,.525,1.08l14.238,16.611.132-.114h0a18.942,18.942,0,0,0,22.686,3.331l5.086,1.695ZM210.9,112.421a14.255,14.255,0,0,1-14.238-14.238V83.746A14.5,14.5,0,0,0,206.2,77.74a14.886,14.886,0,0,0,12.109,6.2h6.827V98.183A14.255,14.255,0,0,1,210.9,112.421Z" transform="translate(-87.499 -17.5)" fill="#006eb7"/>
  <path id="Caminho_1371" data-name="Caminho 1371" d="M512.246,282.373A2.373,2.373,0,1,1,509.873,280a2.373,2.373,0,0,1,2.373,2.373" transform="translate(-393.596 -208.81)" fill="#006eb7"/>
  <path id="Caminho_1372" data-name="Caminho 1372" d="M564.746,282.373A2.373,2.373,0,1,1,562.373,280a2.373,2.373,0,0,1,2.373,2.373" transform="translate(-431.858 -208.81)" fill="#006eb7"/>
</svg>
