<svg xmlns="http://www.w3.org/2000/svg" width="83.214" height="83.215" viewBox="0 0 83.214 83.215">
  <g id="noun-clerk-1750884" transform="translate(0)">
    <path id="Caminho_1253" data-name="Caminho 1253" d="M93.044,66.375h2.774V91.338a9.72,9.72,0,0,0,9.708,9.708h47.154a9.72,9.72,0,0,0,9.708-9.708V66.375h2.774a5.581,5.581,0,0,0,5.547-5.673,5.365,5.365,0,0,0-.8-2.79,1.387,1.387,0,0,0,.8-1.248V28.926a1.387,1.387,0,0,0-1.387-1.387h-6.934V24.766A1.387,1.387,0,0,0,161,23.379h-5.547a1.387,1.387,0,0,0-1.387,1.387v2.774h-6.934a1.387,1.387,0,0,0-1.387,1.387V37.5a4.144,4.144,0,0,0-1.387-.253h-1.387V26.152a8.33,8.33,0,0,0-8.321-8.321h-9.708a9.72,9.72,0,0,0-9.708,9.708v9.708h-1.387a4.161,4.161,0,0,0,0,8.321h1.387v1.387A12.509,12.509,0,0,0,122.168,58.1v1.335h-2.774a15.145,15.145,0,0,0-12.482,6.518V60.824a5.547,5.547,0,0,0-5.547-5.547h-2.3L97.192,41.228l-2.749.366L96.268,55.28h-3.35A5.456,5.456,0,0,0,87.5,60.827a5.548,5.548,0,0,0,5.547,5.547Zm5.547,24.964V69.148h5.547v2.774h-2.774V74.7h2.774V98.135a6.947,6.947,0,0,1-5.547-6.8Zm27.525-24.281-3.948,3.289V62.214h.139A6.934,6.934,0,0,0,126.116,67.058Zm1.6-7.618h2.774a12.487,12.487,0,0,0,2.774-.322v1.709a4.161,4.161,0,0,1-8.321,0V59.118A12.522,12.522,0,0,0,127.716,59.44Zm15.256-12.482V45.571h1.387a4.111,4.111,0,0,0,1.387-.256V56.666a1.387,1.387,0,0,0,1.387,1.387h4.931a5.489,5.489,0,0,0-.771,2.774v5.131A15.154,15.154,0,0,0,138.81,59.44h-2.774V58.1a12.5,12.5,0,0,0,6.934-11.144ZM129.1,72.733l-2.485-2.485,2.485-2.072,2.485,2.072Zm2.983-5.679a7.042,7.042,0,0,0,1.929-1.33,6.964,6.964,0,0,0,1.883-3.511h.139v8.134Zm6.725,16.818,4.975,2.488-4.975,8.29Zm5.547,6.923v7.475h-4.485Zm0-7.251-3.833-1.916,3.833-1.917Zm-5.547-4.161V62.212a12.644,12.644,0,0,1,1.724.131l3.595,14.375Zm-16.642-5.428,2.311-1.925,1.789,1.789-2.574,24.45h-1.526Zm-2.774,20.7-4.975-8.291,4.975-2.488Zm-5.547-11.106V79.712l3.833,1.917Zm0,7.251,4.485,7.475h-4.485Zm12.634,7.475,2.344-22.245a.747.747,0,0,0,.555,0l2.344,22.245Zm5.456-24.45,1.789-1.789,2.311,1.925V98.273h-1.526Zm19.356,24.45h-4.161v-20.8h-.017a1.4,1.4,0,0,0-.025-.337L143.6,63.173a12.546,12.546,0,0,1,7.7,11.522Zm2.774-.139V74.694h2.774V71.92h-2.774V69.147h5.547v22.19a6.947,6.947,0,0,1-5.547,6.794ZM165.161,63.6H161a1.387,1.387,0,0,0-1.387,1.387v1.387h-5.547V60.825a2.773,2.773,0,0,1,2.774-2.774h8.446a2.681,2.681,0,0,1,2.649,2.774,2.774,2.774,0,0,1-2.774,2.774ZM154.067,30.314h8.321v2.774h-8.321Zm2.774-4.161h2.774v1.387H156.84Zm-8.321,4.161h2.774v4.161a1.387,1.387,0,0,0,1.387,1.387h11.095a1.387,1.387,0,0,0,1.387-1.387V30.314h2.774V55.278H148.519Zm-4.161,9.708a1.355,1.355,0,0,1,.989.424,1.338,1.338,0,0,1,.4.963,1.387,1.387,0,0,1-1.387,1.387h-1.387V40.022ZM124.942,20.606h9.708a5.547,5.547,0,0,1,5.547,5.547v4.7l-1.585-2.635h0a1.387,1.387,0,0,0-1.189-.679H120.782a1.387,1.387,0,0,0-1.189.672l-1.585,2.642V27.541a6.942,6.942,0,0,1,6.934-6.934ZM113.847,42.8a1.358,1.358,0,0,1-.989-.425,1.338,1.338,0,0,1-.4-.962,1.387,1.387,0,0,1,1.387-1.387h1.387V42.8Zm4.161,4.161V36.246l3.559-5.931h15.072l3.559,5.931V46.957a9.735,9.735,0,0,1-6.3,9.1,9.564,9.564,0,0,1-3.4.61h-2.774a9.57,9.57,0,0,1-3.411-.62,9.732,9.732,0,0,1-6.3-9.088Zm1.387,32.427-5.318-2.666,3.6-14.382h0a12.707,12.707,0,0,1,1.721-.124Zm-4.79-16.21-3.49,13.96a1.4,1.4,0,0,0-.025.337h-.017v20.8h-4.161V74.7A12.545,12.545,0,0,1,114.6,63.174ZM92.919,58.052h3.719l.579,4.342,2.749-.363-.53-3.979h1.929a2.773,2.773,0,0,1,2.774,2.774v5.547H98.591V64.986A1.387,1.387,0,0,0,97.2,63.6H93.044a2.806,2.806,0,0,1-2.774-2.9,2.651,2.651,0,0,1,2.649-2.649Z" transform="translate(-87.496 -17.831)" fill="#006eb7"/>
    <path id="Caminho_1254" data-name="Caminho 1254" d="M285.547,125.195a5.548,5.548,0,1,0-3.923-1.625A5.548,5.548,0,0,0,285.547,125.195Zm0-8.321a2.773,2.773,0,1,1-1.961.812A2.774,2.774,0,0,1,285.547,116.874Z" transform="translate(-249.488 -98.841)" fill="#006eb7"/>
    <path id="Caminho_1255" data-name="Caminho 1255" d="M355.547,114.1a5.547,5.547,0,1,0,3.923,1.625A5.55,5.55,0,0,0,355.547,114.1Zm0,8.321a2.774,2.774,0,1,1,1.961-.813A2.772,2.772,0,0,1,355.547,122.421Z" transform="translate(-308.393 -98.841)" fill="#006eb7"/>
    <path id="Caminho_1256" data-name="Caminho 1256" d="M490,149.1h13.869v2.774H490Z" transform="translate(-426.203 -128.294)" fill="#006eb7"/>
    <path id="Caminho_1257" data-name="Caminho 1257" d="M490,184.1h13.869v2.774H490Z" transform="translate(-426.203 -157.747)" fill="#006eb7"/>
    <path id="Caminho_1258" data-name="Caminho 1258" d="M490,219.1h13.869v2.774H490Z" transform="translate(-426.203 -187.199)" fill="#006eb7"/>
    <path id="Caminho_1259" data-name="Caminho 1259" d="M322.734,216.652a7.233,7.233,0,0,0,5.147-2.133l-1.961-1.961a4.486,4.486,0,0,1-6.354,0l-1.966,1.955h0a7.2,7.2,0,0,0,5.131,2.136Z" transform="translate(-281.127 -181.694)" fill="#006eb7"/>
  </g>
</svg>
