<svg xmlns="http://www.w3.org/2000/svg" width="66.729" height="80.632" viewBox="0 0 66.729 80.632">
  <g id="noun-fever-2755294" transform="translate(-107.32 -26.249)">
    <path id="Caminho_1634" data-name="Caminho 1634" d="M232.655,114.68V93.061a5.561,5.561,0,1,0-11.122,0v21.62a8.32,8.32,0,0,0,3.789,14.341,8.589,8.589,0,0,0,1.759.184,8.341,8.341,0,0,0,8.354-8.341,8.247,8.247,0,0,0-2.78-6.185ZM230.6,125.175a5.548,5.548,0,1,1-6.842-8.73,1.39,1.39,0,0,0,.556-1.112V93.06a2.78,2.78,0,1,1,5.561,0h-1.39a1.39,1.39,0,0,0,0,2.78h1.39v2.78h-1.39a1.39,1.39,0,0,0,0,2.78h1.39v2.78h-1.39a1.39,1.39,0,0,0,0,2.78h1.39v2.78h-1.39a1.39,1.39,0,0,0,0,2.78h1.39v2.811a1.39,1.39,0,0,0,.556,1.112,5.527,5.527,0,0,1,.174,8.736Z" transform="translate(-98.922 -51.52)" fill="#2482c1"/>
    <path id="Caminho_1635" data-name="Caminho 1635" d="M259.311,282.78a2.78,2.78,0,1,1-2.78-2.78,2.781,2.781,0,0,1,2.78,2.78" transform="translate(-128.358 -213.435)" fill="#2482c1"/>
    <path id="Caminho_1636" data-name="Caminho 1636" d="M331.52,169.909a4.891,4.891,0,0,0,1.989.521,1.374,1.374,0,0,0,1.371-1.355,1.407,1.407,0,0,0-1.339-1.425,3.055,3.055,0,0,1-1.83-.983,1.391,1.391,0,0,0-2.224.362,8.127,8.127,0,0,0,0,6.8,1.391,1.391,0,1,0,2.488-1.242,5.722,5.722,0,0,1-.456-2.68Z" transform="translate(-191.434 -117.768)" fill="#2482c1"/>
    <path id="Caminho_1637" data-name="Caminho 1637" d="M368.022,156.484a1.391,1.391,0,0,0-2.4-.532,2.3,2.3,0,0,1-1.807.908c-.636-5.58-4.5-7.737-6.633-8.093h0a1.39,1.39,0,0,0-1.622,1.371,9.934,9.934,0,0,1-2.869,7.636A8.741,8.741,0,0,0,350,164.038c0,4.488,3.091,7.59,8.33,8.314a1.353,1.353,0,0,0,.278.027,1.394,1.394,0,0,0,.153-.008c9.312-1.033,10.7-6.536,10.7-9.723a17.7,17.7,0,0,0-1.371-5.978Zm-9.394,13.1c-2.2-.308-5.846-1.442-5.846-5.548a6.137,6.137,0,0,1,2.027-4.464,12.37,12.37,0,0,0,3.43-7.418,6.6,6.6,0,0,1,2.834,5.4c-2.816,1.452-3.168,5.069-3.182,5.24a1.39,1.39,0,0,0,1.267,1.5h.119a1.389,1.389,0,0,0,1.39-1.272c0-.028.278-2.728,2.188-3.2a8.735,8.735,0,0,1,1.089-.181,6.341,6.341,0,0,0,2.085-.516,12.227,12.227,0,0,1,.655,3.518c0,3.968-2.71,6.3-8.056,6.939Z" transform="translate(-209.317 -103.035)" fill="#2482c1"/>
    <path id="Caminho_1638" data-name="Caminho 1638" d="M206.451,73.7l-5.283-10.258V58.223c0-22.087-14.662-31.974-29.194-31.974-25.292,0-31.974,18.188-31.974,27.8,0,14.016,4.5,19.765,8.109,24.385,2.456,3.142,4.4,5.627,4.4,10.051V104.1a2.78,2.78,0,0,0,2.78,2.78h30.584a2.78,2.78,0,0,0,2.78-2.78V92.979h4.171a6.959,6.959,0,0,0,6.951-6.951l.068-7.217,4.649-1.179h0a2.789,2.789,0,0,0,2.234-2.726,2.824,2.824,0,0,0-.278-1.2Zm-7.229,2.4h0A2.78,2.78,0,0,0,197,78.826v7.2a4.17,4.17,0,0,1-4.171,4.17H180.316a1.39,1.39,0,0,0,0,2.78h5.561V104.1H155.292V88.488c0-5.383-2.425-8.48-4.992-11.765-3.524-4.506-7.519-9.613-7.519-22.67,0-8.655,6.1-25.023,29.194-25.023,12.185,0,26.414,7.646,26.414,29.194v5.561a1.386,1.386,0,0,0,.155.637l5.339,10.5Z" transform="translate(-32.68)" fill="#2482c1"/>
  </g>
</svg>
