<svg id="noun-know-how-3263120" xmlns="http://www.w3.org/2000/svg" width="66.334" height="66.292" viewBox="0 0 66.334 66.292">
  <path id="Caminho_1680" data-name="Caminho 1680" d="M191.614,321.12h-4.451a1.112,1.112,0,1,0,0,2.223h4.451a1.112,1.112,0,1,0,0-2.223Z" transform="translate(-173.486 -282.651)" fill="#006eb7"/>
  <path id="Caminho_1681" data-name="Caminho 1681" d="M200.521,367.19H187.172a1.112,1.112,0,0,0,0,2.223h13.349a1.112,1.112,0,1,0,0-2.223Z" transform="translate(-173.494 -322.868)" fill="#006eb7"/>
  <path id="Caminho_1682" data-name="Caminho 1682" d="M200.521,413.26H187.172a1.112,1.112,0,1,0,0,2.223h13.349a1.112,1.112,0,1,0,0-2.223Z" transform="translate(-173.494 -363.086)" fill="#006eb7"/>
  <path id="Caminho_1683" data-name="Caminho 1683" d="M403.442,368.122a1.112,1.112,0,0,0-1.112-1.112H388.982a1.112,1.112,0,1,0,0,2.223h13.349a1.112,1.112,0,0,0,1.112-1.112Z" transform="translate(-349.667 -322.711)" fill="#006eb7"/>
  <path id="Caminho_1684" data-name="Caminho 1684" d="M388.972,413.08a1.112,1.112,0,0,0,0,2.223h6.674a1.112,1.112,0,1,0,0-2.223Z" transform="translate(-349.658 -362.929)" fill="#006eb7"/>
  <path id="Caminho_1685" data-name="Caminho 1685" d="M151.925,40.108H147.51V38.543a1.558,1.558,0,0,0-1.556-1.556h-5.62a.253.253,0,0,1-.009.058,2.082,2.082,0,0,1-.04.231c-.018.1-.04.2-.066.3l-.049.213q-.067.227-.147.454c-.018.054-.04.107-.062.156l-.018.045c-.036.1-.075.187-.111.271s-.071.151-.107.222-.084.165-.129.249-.084.147-.116.2c-.022.031-.04.062-.058.089l.027.04q.16.207.307.427c.027.045.054.084.08.129a.094.094,0,0,0,.018.027H144.4V75.184H125.034a6.029,6.029,0,0,0-3.162.894V57.444c.08.04.16.084.245.12.031.013.058.031.089.045.151.062.3.12.458.169a.486.486,0,0,0,.084.031c.133.045.271.075.409.111.049.009.1.027.156.04s.1.013.156.022a5.811,5.811,0,0,0,1,.1,4.945,4.945,0,0,0,.574-.036l.1-.013a4.355,4.355,0,0,0,.467-.075,1.058,1.058,0,0,0,.116-.022,5.455,5.455,0,0,0,1.05-.347c.049-.022.1-.045.151-.071a3.675,3.675,0,0,0,.342-.178c.054-.027.107-.058.16-.089.133-.08.263-.169.391-.258a.585.585,0,0,1,.062-.045c.036.013.071.018.1.031.08.027.165.054.245.075s.178.049.267.067.178.04.267.058.187.031.28.045.169.022.258.031a3.573,3.573,0,0,0,.378.018c.054,0,.107.009.16.009a5.882,5.882,0,0,0,5.873-5.873c0-.031,0-.062,0-.093a3.988,3.988,0,0,0-.018-.4c.2-.084.383-.178.565-.276a.333.333,0,0,0,.054-.031c.187-.1.369-.213.547-.329a0,0,0,0,1,0,0,7.041,7.041,0,0,0,2.552-3.09.219.219,0,0,1,.013-.031,7.2,7.2,0,0,0,.4-1.263l.027-.147c.031-.165.054-.325.075-.494,0-.062.013-.125.018-.187.022-.2.031-.409.036-.618v-.027c0-.1-.013-.191-.013-.284-.009-.138-.009-.276-.022-.409-.018-.182-.049-.356-.08-.529a.832.832,0,0,0-.022-.147,5.2,5.2,0,0,0-.142-.578c0-.027-.013-.054-.018-.08-.058-.191-.129-.378-.2-.56-.009-.027-.018-.049-.027-.071-.071-.178-.151-.347-.236-.516-.018-.036-.031-.066-.049-.1-.08-.151-.169-.3-.263-.445a1.606,1.606,0,0,0-.084-.142q-.127-.194-.267-.374c-.045-.062-.089-.125-.138-.182-.084-.107-.173-.2-.262-.3-.049-.054-.093-.111-.142-.165a.245.245,0,0,0,.031-.04c.08-.093.151-.191.222-.289.04-.049.071-.1.107-.156.049-.075.1-.151.147-.227.036-.058.066-.116.1-.173s.071-.133.107-.2.058-.12.084-.178c.036-.075.066-.156.1-.231.022-.054.045-.111.066-.165.045-.125.084-.254.12-.383.013-.058.027-.116.045-.178.018-.08.036-.16.054-.245.013-.062.022-.129.036-.191.009-.084.022-.169.031-.249.009-.062.013-.125.018-.187.009-.111.013-.222.018-.338,0-.031,0-.062,0-.093,0-.013,0-.022,0-.036a5.2,5.2,0,0,0-.04-.592c0-.054-.009-.111-.018-.165a5.354,5.354,0,0,0-.12-.592.729.729,0,0,0-.027-.093c-.049-.173-.107-.342-.173-.511-.013-.04-.031-.084-.049-.129a4.983,4.983,0,0,0-.263-.538.756.756,0,0,0-.058-.1,5.449,5.449,0,0,0-.3-.462c-.018-.022-.036-.049-.054-.075-.125-.16-.254-.316-.4-.467-.027-.027-.054-.054-.08-.084a5.73,5.73,0,0,0-.454-.413l-.009-.009a5.512,5.512,0,0,0-.52-.369.387.387,0,0,0-.045-.031c.018-.116.031-.236.045-.351.009-.075.022-.151.031-.227.013-.165.018-.329.022-.5,0-.045,0-.089,0-.133a7.16,7.16,0,0,0-.56-2.779.023.023,0,0,1-.009-.018c-.089-.2-.187-.409-.293-.6a7.191,7.191,0,0,0-2.29-2.516c-.1-.071-.213-.133-.316-.2s-.178-.116-.271-.165a7.1,7.1,0,0,0-3.4-.862h-.054c-.165,0-.333.009-.5.022-.018-.191-.049-.374-.084-.556a.016.016,0,0,1,0-.013c-.031-.16-.075-.316-.12-.471a.358.358,0,0,1-.022-.062c-.045-.138-.093-.271-.147-.4-.013-.031-.031-.058-.045-.089a3.272,3.272,0,0,0-.169-.351c-.018-.04-.04-.071-.058-.107-.062-.107-.125-.213-.191-.311l-.08-.12c-.066-.093-.133-.182-.2-.271-.036-.04-.066-.08-.1-.125-.071-.08-.142-.16-.218-.236-.04-.045-.08-.084-.12-.125-.075-.071-.151-.138-.231-.2a1.194,1.194,0,0,0-.142-.12c-.075-.062-.156-.12-.236-.178-.054-.04-.107-.075-.165-.116-.075-.049-.156-.1-.236-.142-.062-.036-.125-.075-.187-.107-.08-.04-.16-.08-.24-.116s-.138-.066-.209-.093-.16-.062-.24-.089-.151-.054-.231-.08-.151-.04-.227-.058-.169-.045-.258-.062c-.066-.013-.138-.022-.2-.031-.1-.018-.2-.036-.3-.045a.535.535,0,0,1-.084,0c-.138-.009-.28-.022-.422-.022a5.16,5.16,0,0,0-2.432.609s-.009,0-.013.009c-.129.066-.249.142-.369.218-.018.013-.04.027-.062.04-.1.071-.2.147-.307.227l-.093.066c-.089.075-.169.151-.254.231-.036.031-.071.058-.107.093a2.222,2.222,0,0,0-.178-.16c-.058-.054-.111-.107-.173-.156s-.133-.1-.2-.151-.129-.1-.2-.147-.129-.08-.191-.116c-.08-.049-.156-.1-.236-.142-.058-.031-.116-.054-.173-.084-.093-.045-.187-.093-.28-.133-.045-.018-.084-.031-.129-.045a3.637,3.637,0,0,0-.347-.129c-.013,0-.022,0-.036-.009a5.163,5.163,0,0,0-1.494-.222c-.16,0-.32.013-.48.027h-.018c-.125.013-.24.031-.36.054-.049.009-.093.013-.138.022-.111.018-.218.049-.325.075l-.16.04c-.1.031-.2.066-.3.107-.06.018-.113.036-.166.059-.1.04-.187.084-.28.129-.054.022-.111.049-.165.075-.089.049-.173.1-.258.147-.054.036-.111.066-.165.1-.08.054-.16.111-.236.169-.054.036-.107.075-.156.116-.075.058-.147.12-.218.182-.054.045-.1.089-.151.133l-.195.2c-.049.054-.093.1-.138.156a2.523,2.523,0,0,0-.173.209c-.045.058-.089.116-.129.173a2.38,2.38,0,0,0-.151.218c-.04.062-.08.125-.116.187-.045.08-.089.156-.129.231s-.066.138-.1.2-.071.156-.107.24-.054.142-.08.218-.058.16-.084.245-.04.151-.058.227-.045.173-.062.258-.022.156-.036.231-.027.178-.036.271c0,0,0,.009,0,.013-.169-.013-.342-.022-.516-.022h-.036a7.159,7.159,0,0,0-6.581,4.362c-.049.12-.089.245-.133.369-.036.093-.075.191-.107.289s-.054.2-.08.3c-.031.125-.071.254-.1.383a7.289,7.289,0,0,0-.147,1.436c0,.031,0,.058,0,.089,0,.178.009.36.027.538.009.093.022.187.036.28s.022.2.04.3l-.04.027a5.582,5.582,0,0,0-1.009.818.421.421,0,0,1-.045.045,5.892,5.892,0,0,0-.427.507l0,0a6.03,6.03,0,0,0-.365.56c0,.009,0,.013-.009.022a4.939,4.939,0,0,0-.293.6c0,.013-.009.022-.013.036a5.571,5.571,0,0,0-.347,1.3c0,.018,0,.04,0,.058a5,5,0,0,0-.049.685c0,.165.009.325.022.485,0,0,0,.009,0,.013.013.151.031.3.058.449,0,.013,0,.031.009.045a5.592,5.592,0,0,0,.413,1.316.427.427,0,0,1,.031.062c.058.116.116.231.182.342a.415.415,0,0,0,.036.062,5.649,5.649,0,0,0,.516.738l.013.013c-.031.036-.058.071-.089.1-.116.125-.227.249-.333.383-.027.036-.049.071-.075.1-.116.147-.222.3-.325.449l-.04.066c-.107.169-.209.342-.3.52,0,.009-.009.022-.013.031-.1.191-.187.383-.267.578a.016.016,0,0,0,0,.013c-.084.2-.156.409-.222.622,0,.009,0,.018,0,.027a6.169,6.169,0,0,0-.156.622c-.009.04-.009.075-.018.111-.031.187-.062.374-.084.565-.009.129-.013.263-.018.391,0,.1-.013.2-.013.3v.027c0,.209.013.413.031.618,0,.062.013.125.022.187.018.169.045.333.075.494.009.049.013.1.027.147a7.207,7.207,0,0,0,.4,1.263.216.216,0,0,1,.013.031,7.033,7.033,0,0,0,2.552,3.09l0,0c.173.116.356.227.542.329a.388.388,0,0,0,.058.031c.182.1.369.191.56.276-.013.147-.018.3-.018.449,0,.018,0,.031,0,.045a5.883,5.883,0,0,0,5.878,5.873c.049,0,.1,0,.151,0,.129,0,.258-.009.387-.022.08-.009.16-.018.236-.031.107-.013.209-.027.316-.045.075-.018.147-.031.222-.049.111-.027.218-.054.325-.084.062-.018.125-.036.187-.058.045-.013.089-.022.133-.04v0a.272.272,0,0,1,.045.031c.133.093.271.182.409.267.054.031.1.062.156.089.111.062.227.125.347.182l.147.066a5.455,5.455,0,0,0,1.05.347l.12.027c.151.031.307.054.463.071l.1.013a4.962,4.962,0,0,0,.578.036,5.42,5.42,0,0,0,1.107-.116.183.183,0,0,0,.049,0c.1-.022.191-.049.289-.075s.182-.045.271-.071.147-.054.222-.08c.107-.04.209-.075.311-.12.075-.031.147-.071.218-.1s.116-.058.173-.089V76.079a6.029,6.029,0,0,0-3.162-.894H96.235V40.1h4.5c.013-.018.022-.04.036-.062l.049-.075c.107-.169.222-.329.342-.485l-.08-.133-.031-.058c-.089-.151-.16-.293-.227-.431l-.036-.075a6.367,6.367,0,0,1-.5-1.583l-.009-.058c-.009-.049-.013-.1-.022-.151h-5.58a1.558,1.558,0,0,0-1.556,1.556v1.565H88.7a1.555,1.555,0,0,0-1.556,1.556V83.038A1.558,1.558,0,0,0,88.7,84.594h63.221a1.555,1.555,0,0,0,1.556-1.556V41.664a1.552,1.552,0,0,0-1.556-1.556ZM118.738,52.339a2.8,2.8,0,0,1-.013.28c0,.049-.018.1-.022.147s-.013.08-.022.116c-.009.058-.027.116-.04.169-.009.027-.013.058-.022.08-.018.054-.036.1-.058.151a.8.8,0,0,1-.036.093c-.013.031-.027.058-.04.089a2.969,2.969,0,0,1-.284.462.01.01,0,0,1-.009.009c-.036.049-.071.093-.107.133l-.009.009a2.358,2.358,0,0,1-.178.182.254.254,0,0,1-.036.031,1.681,1.681,0,0,1-.165.138l-.054.04-.16.107a.582.582,0,0,0-.071.045c-.054.027-.1.054-.156.08l-.089.04c-.049.022-.093.04-.142.058s-.075.027-.111.04a1.109,1.109,0,0,1-.116.031,1.5,1.5,0,0,1-.151.04.1.1,0,0,1-.036,0,2.571,2.571,0,0,1-.494.049,2.542,2.542,0,0,1-.551-.058c-.013,0-.022,0-.036-.009s-.04-.013-.058-.018a5.847,5.847,0,0,0,1.147-3.473,1.556,1.556,0,0,0-3.112,0,2.765,2.765,0,0,1-1.445,2.428,2.554,2.554,0,0,1-.249.12c-.04.018-.08.027-.12.045-.062.022-.129.045-.2.062l-.1.027a2.374,2.374,0,0,1-.245.049.447.447,0,0,1-.071.009,2.745,2.745,0,0,1-3.094-2.677,7.182,7.182,0,0,0,1.112-.129,1.556,1.556,0,1,0-.622-3.05,3.957,3.957,0,0,1-.8.08,4.273,4.273,0,0,1-.671-.058v0c-.111-.018-.218-.04-.325-.066l-.045-.013c-.093-.027-.182-.054-.271-.084a.928.928,0,0,0-.1-.036c-.071-.027-.138-.058-.209-.089-.054-.027-.107-.049-.165-.08s-.093-.045-.138-.071c-.08-.045-.16-.093-.24-.147-.018-.013-.036-.022-.054-.036a3.949,3.949,0,0,1-1.25-1.374.09.09,0,0,1-.018-.036c-.054-.093-.1-.191-.142-.289a.469.469,0,0,0-.031-.071c-.036-.089-.066-.178-.093-.267a.687.687,0,0,1-.036-.1c-.022-.08-.045-.165-.062-.249-.009-.04-.022-.08-.031-.125-.013-.08-.027-.165-.036-.245,0-.045-.013-.089-.018-.133-.009-.1-.013-.209-.018-.316v-.062a4.085,4.085,0,0,1,.036-.525c0-.036.013-.066.018-.1a3.984,3.984,0,0,1,.3-1.014.034.034,0,0,0,.009-.018,4.068,4.068,0,0,1,.6-.925h0a3.476,3.476,0,0,1,.383-.387s.013-.009.018-.018a3.976,3.976,0,0,1,2.588-.97,1.556,1.556,0,1,0,0-3.112,7.007,7.007,0,0,0-2.45.445.016.016,0,0,0-.009,0c-.031-.031-.062-.058-.093-.089a1.7,1.7,0,0,1-.125-.129c-.027-.031-.054-.058-.075-.089a2.077,2.077,0,0,1-.16-.222c-.022-.04-.045-.08-.066-.125a1.109,1.109,0,0,1-.071-.129c-.022-.049-.04-.1-.058-.147s-.031-.08-.045-.12-.031-.107-.045-.16-.018-.08-.027-.116c-.009-.062-.022-.12-.031-.178a.478.478,0,0,0,0-.08c0-.066-.009-.133-.009-.2a2.366,2.366,0,0,1,.729-1.708,7.549,7.549,0,0,0,.471.6,1.557,1.557,0,0,0,2.321-2.076,3.975,3.975,0,0,1-.742-1.2c-.04-.1-.071-.2-.1-.3,0-.018-.013-.031-.018-.049a3.172,3.172,0,0,1-.084-.356s0-.009,0-.013a3.664,3.664,0,0,1-.054-.378v0a3.593,3.593,0,0,1-.022-.383,4.082,4.082,0,0,1,.084-.809c.013-.058.031-.116.045-.173s.031-.142.054-.213.049-.129.071-.191.04-.12.066-.178a.885.885,0,0,1,.045-.093,4.027,4.027,0,0,1,3.668-2.37c.147,0,.289.009.431.022.045,0,.089.013.133.022.1.013.2.027.289.049a1.241,1.241,0,0,1,.138.036,2.427,2.427,0,0,1,.3.089.763.763,0,0,1,.093.031,4.193,4.193,0,0,1,.387.165s.013,0,.018.009l.049.022a.014.014,0,0,1,.009,0,4.02,4.02,0,0,1,.934.667,1.557,1.557,0,1,0,2.152-2.25,7.2,7.2,0,0,0-1.218-.929,2.013,2.013,0,0,1-.075-.542,2.081,2.081,0,0,1,4.162,0ZM90.259,81.48V43.219h2.863v33.52A1.558,1.558,0,0,0,94.678,78.3H115.6a3.291,3.291,0,0,1,3.148,3.183ZM121.85,52.334V23.5a2.081,2.081,0,0,1,2.086-2.077,2.021,2.021,0,0,1,.907.218,2.074,2.074,0,0,1,1.169,1.863,1.964,1.964,0,0,1-.071.533,7.5,7.5,0,0,0-1.223.934,1.557,1.557,0,1,0,2.152,2.25,3.971,3.971,0,0,1,.934-.667.014.014,0,0,1,.009,0,.075.075,0,0,1,.022-.009.521.521,0,0,0,.049-.022c.133-.066.267-.12.4-.173a.218.218,0,0,0,.049-.018,3.282,3.282,0,0,1,.342-.1c.04-.009.075-.022.111-.031q.16-.033.32-.054c.036,0,.075-.013.111-.018.142-.013.289-.022.436-.022a3.985,3.985,0,0,1,1.565.316,4.059,4.059,0,0,1,2.148,2.148,3.986,3.986,0,0,1,.316,1.565,3.6,3.6,0,0,1-.018.383c0,.036-.009.066-.013.1-.013.089-.022.178-.04.267-.009.054-.022.1-.036.156-.018.071-.031.138-.049.209-.013.045-.031.093-.049.138-.022.075-.049.151-.075.227a4.086,4.086,0,0,1-.742,1.2,1.557,1.557,0,0,0,2.321,2.076,7.48,7.48,0,0,0,.471-.6,2.316,2.316,0,0,1,.449.587,2.446,2.446,0,0,1,.262,1.432c0,.022-.009.04-.013.058a2.153,2.153,0,0,1-.049.245c-.009.022-.013.049-.022.071a1.97,1.97,0,0,1-.08.222l-.027.066a2.445,2.445,0,0,1-.125.24.1.1,0,0,1-.013.022,2.723,2.723,0,0,1-.178.254l-.022.022a1.887,1.887,0,0,1-.182.2c-.022.018-.045.04-.066.058s-.018.013-.027.022a7.007,7.007,0,0,0-2.45-.445,1.556,1.556,0,1,0,0,3.112,3.944,3.944,0,0,1,1.681.378,3.735,3.735,0,0,1,.436.24l.045.027a3.57,3.57,0,0,1,.413.311c.022.018.04.04.062.058a3.315,3.315,0,0,1,.329.333l.04.04a5.021,5.021,0,0,1,.316.422.2.2,0,0,0,.018.031,3.936,3.936,0,0,1,.24.445c.009.013.013.027.022.04a4.105,4.105,0,0,1,.191.507V43.3a3.7,3.7,0,0,1,.111.489c0,.031.009.066.013.1a4.086,4.086,0,0,1,.04.525c0,.022,0,.045,0,.066,0,.1,0,.209-.013.311,0,.045-.013.089-.018.133-.013.08-.022.165-.04.245-.009.045-.018.084-.027.125-.022.084-.04.169-.066.249-.009.036-.022.071-.031.107-.031.084-.062.173-.1.258-.009.027-.022.054-.031.075-.045.1-.089.2-.138.289a.261.261,0,0,0-.018.036,3.981,3.981,0,0,1-1.25,1.374.431.431,0,0,1-.058.036,2.584,2.584,0,0,1-.236.147c-.049.027-.1.049-.142.071a1.745,1.745,0,0,1-.165.08c-.066.031-.138.062-.209.089l-.1.036c-.089.031-.178.058-.271.084l-.04.013c-.107.027-.218.049-.329.066v0a4.126,4.126,0,0,1-.671.058,4.025,4.025,0,0,1-.8-.08,1.556,1.556,0,0,0-.622,3.05,7.181,7.181,0,0,0,1.112.129,2.762,2.762,0,0,1-2.757,2.7,3.015,3.015,0,0,1-.347-.022c-.018,0-.036,0-.054-.009-.093-.013-.182-.031-.276-.054a.426.426,0,0,0-.071-.018,2.82,2.82,0,0,1-.271-.093c-.018,0-.036-.013-.049-.018a2.6,2.6,0,0,1-.271-.133,2.766,2.766,0,0,1-1.427-2.414,1.556,1.556,0,0,0-3.112,0,5.822,5.822,0,0,0,1.152,3.473,2.468,2.468,0,0,1-1.107.04c-.022,0-.049,0-.075-.009s-.071-.022-.107-.031l-.16-.04-.066-.027c-.062-.022-.129-.049-.191-.075a.466.466,0,0,1-.045-.018c-.066-.036-.138-.071-.2-.111l-.027-.013c-.071-.045-.138-.089-.2-.138l-.022-.013c-.066-.054-.133-.107-.2-.165,0,0,0,0-.009-.009-.066-.062-.129-.129-.191-.2-.036-.045-.075-.089-.116-.138v0a2.444,2.444,0,0,1-.284-.467.822.822,0,0,1-.045-.089c-.013-.031-.022-.062-.036-.089-.018-.054-.04-.1-.054-.156a.426.426,0,0,1-.022-.08c-.018-.058-.031-.111-.045-.169a.9.9,0,0,1-.018-.116c-.009-.049-.018-.1-.022-.147a2.762,2.762,0,0,1-.018-.28s0,0,0,0ZM150.369,81.48H121.886a3.291,3.291,0,0,1,3.148-3.183h20.92a1.558,1.558,0,0,0,1.556-1.556V43.22h2.859Z" transform="translate(-87.146 -18.302)" fill="#006eb7"/>
  <path id="Caminho_1686" data-name="Caminho 1686" d="M373.027,124.908a1.7,1.7,0,0,1,2.609,1.43,1.112,1.112,0,0,0,2.223,0,3.923,3.923,0,0,0-2.318-3.574,2.252,2.252,0,0,1,1-1.675,1.112,1.112,0,0,0-1.23-1.852,4.469,4.469,0,0,0-1.972,3.231,3.9,3.9,0,0,0-1.509.568,1.112,1.112,0,1,0,1.2,1.872Z" transform="translate(-335.215 -106.252)" fill="#006eb7"/>
  <path id="Caminho_1687" data-name="Caminho 1687" d="M379.255,210.59a1.876,1.876,0,0,1-1.4-.65,1.111,1.111,0,1,0-1.682,1.454,4.091,4.091,0,0,0,3.07,1.419,3.58,3.58,0,0,0,.659,1.217,1.111,1.111,0,1,0,1.707-1.424,1.38,1.38,0,0,1,.887-2.251,1.112,1.112,0,1,0-.28-2.205,3.6,3.6,0,0,0-2.961,2.44Z" transform="translate(-339.22 -184.024)" fill="#006eb7"/>
  <path id="Caminho_1688" data-name="Caminho 1688" d="M279.368,123.045a3.9,3.9,0,0,0-1.509-.568,4.471,4.471,0,0,0-1.972-3.231,1.112,1.112,0,1,0-1.231,1.852,2.252,2.252,0,0,1,1,1.675,3.923,3.923,0,0,0-2.318,3.574,1.112,1.112,0,0,0,2.223,0,1.7,1.7,0,0,1,2.609-1.43,1.112,1.112,0,0,0,1.2-1.872Z" transform="translate(-249.683 -106.26)" fill="#006eb7"/>
  <path id="Caminho_1689" data-name="Caminho 1689" d="M266.329,209.933a1.873,1.873,0,0,1-1.4.65,3.6,3.6,0,0,0-2.961-2.44,1.111,1.111,0,1,0-.28,2.205,1.381,1.381,0,0,1,1.195,1.541,1.367,1.367,0,0,1-.308.709,1.111,1.111,0,1,0,1.706,1.425,3.585,3.585,0,0,0,.66-1.217,4.091,4.091,0,0,0,3.07-1.419,1.112,1.112,0,0,0-1.683-1.453Z" transform="translate(-238.667 -184.018)" fill="#006eb7"/>
</svg>
