<svg xmlns="http://www.w3.org/2000/svg" width="52.668" height="60.192" viewBox="0 0 52.668 60.192">
  <g id="noun-question-task-396623_1_" data-name="noun-question-task-396623 (1)" transform="translate(-105 -0.004)">
    <path id="Caminho_1744" data-name="Caminho 1744" d="M352.134,303.33a13.794,13.794,0,1,0,13.794,13.795A13.81,13.81,0,0,0,352.134,303.33Zm0,25.081a11.286,11.286,0,1,1,11.286-11.286A11.3,11.3,0,0,1,352.134,328.411Z" transform="translate(-208.259 -270.723)" fill="#93d1f2"/>
    <path id="Caminho_1745" data-name="Caminho 1745" d="M455.355,490.453a1.253,1.253,0,0,0-.351.878,1.254,1.254,0,1,0,2.132-.878,1.264,1.264,0,0,0-1.781,0Z" transform="translate(-312.384 -437.405)" fill="#93d1f2"/>
    <path id="Caminho_1746" data-name="Caminho 1746" d="M414.605,350c-3.343,0-6.034,2.007-6.26,4.67a1.254,1.254,0,0,0,1.144,1.355,1.273,1.273,0,0,0,1.355-1.144c.11-1.307,1.8-2.373,3.762-2.373,2.041,0,3.767,1.149,3.767,2.508,0,1.221-1.189,2.012-3.739,2.481l-.274.053a1.256,1.256,0,0,0-1,1.226l-.005,2.508a1.254,1.254,0,0,0,2.508,0l0-1.487c3.328-.783,5.013-2.39,5.013-4.785,0-2.766-2.814-5.016-6.275-5.016Z" transform="translate(-270.736 -312.375)" fill="#93d1f2"/>
    <path id="Caminho_1747" data-name="Caminho 1747" d="M132.588,57.688H108.762a1.256,1.256,0,0,1-1.254-1.254V8.782a1.256,1.256,0,0,1,1.254-1.254h6.27V8.782a1.254,1.254,0,0,0,1.254,1.254h22.572a1.255,1.255,0,0,0,1.254-1.254V7.528h6.27a1.256,1.256,0,0,1,1.254,1.254V28.846a1.254,1.254,0,1,0,2.508,0V8.782a3.767,3.767,0,0,0-3.762-3.762h-6.5a3.755,3.755,0,0,0-3.531-2.508H131.9a4.99,4.99,0,0,0-8.658,0h-4.449a3.755,3.755,0,0,0-3.531,2.508h-6.5A3.767,3.767,0,0,0,105,8.782V56.434a3.767,3.767,0,0,0,3.762,3.762h23.826a1.254,1.254,0,1,0,0-2.508ZM118.794,5.02h5.247a1.247,1.247,0,0,0,1.179-.833,2.488,2.488,0,0,1,4.7,0,1.253,1.253,0,0,0,1.181.833h5.247A1.256,1.256,0,0,1,137.6,6.274V7.528H117.539V6.274a1.256,1.256,0,0,1,1.254-1.254Z" fill="#93d1f2"/>
  </g>
</svg>
