<svg xmlns="http://www.w3.org/2000/svg" width="85.376" height="87.192" viewBox="0 0 85.376 87.192">
  <g id="noun-muscles-4442409" transform="translate(-115.218 -40.155)">
    <path id="Caminho_1631" data-name="Caminho 1631" d="M198.808,94.224a3.15,3.15,0,0,1-2.771-1.629,19.341,19.341,0,0,0-12.114-9.569,18.96,18.96,0,0,0-18.232,5.922,1.591,1.591,0,0,1-2.346-2.15,23.387,23.387,0,0,1,2.544-2.381,15.419,15.419,0,0,0-2.917-1.8,21.084,21.084,0,0,0-16.734-.1c-.518,1.345-1.082,2.683-1.745,4.006h0a1.591,1.591,0,0,1-2.845-1.427c6.174-12.313,2.543-17.729,6.242-23.9a16.114,16.114,0,0,1,7.194-6.2,17.58,17.58,0,0,1-.58-2.217,1.591,1.591,0,0,1,3.125-.6c.6,3.1,1.933,5.781,4.944,6.6a21.448,21.448,0,0,1,7.053,3.421c1.233.84,1.706,1.133,2.619,1.146,0,0,1.207-.084,1.34-.693s-4.421-3.265-4.939-3.715a4.98,4.98,0,0,1,2.806-8.815,1.591,1.591,0,0,1,.369,3.161,1.8,1.8,0,0,0-1.086,3.252c.315.275,2.993,1.92,3.751,2.5.429-.483,1.708-1.722,1.74-2.319.359-7.094.658-5.579-.956-9.486h0a.526.526,0,0,0-.385-.317c-20.505-4.079-16.6-3.572-21.816-3.421a3.283,3.283,0,0,0-2.615,1.411c-7.628,10.84-13.811,14.385-18.738,19.489a45.271,45.271,0,0,0-10.145,17.3,1.578,1.578,0,0,1-.435.668c-.911.836-3,3.019-2.708,5.236.569,4.291,18.425,15.764,27.384,18.436h0a74,74,0,0,0,24.691,2.861,3.152,3.152,0,0,1,3.117,2.1,32.678,32.678,0,0,0,8.768,13.608,1.591,1.591,0,0,1-2.164,2.333A35.862,35.862,0,0,1,170.6,112a75.287,75.287,0,0,1-25.689-2.919c-7.94-2.334-28.713-14.051-29.64-21.071-.443-3.347,1.815-6.173,3.408-7.713a48.27,48.27,0,0,1,10.745-18.124c5.081-5.254,11.126-8.71,18.423-19.105a6.533,6.533,0,0,1,5.127-2.763c6.043-.174.587-.882,22.529,3.483h0a3.7,3.7,0,0,1,2.7,2.223c1.8,4.348,1.58,3.2,1.193,10.861-.093,1.837-1.075,2.625-2.842,4.613h0a3.175,3.175,0,0,1,.133,1.84,4.47,4.47,0,0,1-4.446,3.2h-.058a7.318,7.318,0,0,1-4.358-1.7,18.418,18.418,0,0,0-6.09-2.978,8.067,8.067,0,0,1-5.265-3.946,13.092,13.092,0,0,0-5.858,4.932c-2.406,4.014-.762,7.435-3.123,15.885a23.865,23.865,0,0,1,16.822,1.014,18.854,18.854,0,0,1,4.287,2.795,21.667,21.667,0,0,1,16.047-2.6A22.55,22.55,0,0,1,198.825,91.06a1.593,1.593,0,1,1-.016,3.164Z" fill="#2482c1"/>
    <path id="Caminho_1632" data-name="Caminho 1632" d="M268.564,332.4a30.165,30.165,0,0,1-32.457-4.655,1.59,1.59,0,0,1,2.085-2.4,26.965,26.965,0,0,0,29.043,4.167,1.591,1.591,0,0,1,1.329,2.89Z" transform="translate(-98.467 -233.022)" fill="#2482c1"/>
    <path id="Caminho_1633" data-name="Caminho 1633" d="M495.184,413.751a20.265,20.265,0,0,1-16.721-10.711,1.59,1.59,0,0,1,2.806-1.5,17.081,17.081,0,0,0,14.02,9.03,1.591,1.591,0,0,1-.1,3.178Z" transform="translate(-297.046 -294.996)" fill="#2482c1"/>
  </g>
</svg>
